<svg xmlns="http://www.w3.org/2000/svg" xmlns:xlink="http://www.w3.org/1999/xlink" width="280" zoomAndPan="magnify" viewBox="0 0 210 209.999996" height="280" preserveAspectRatio="xMidYMid meet" version="1.0"><defs><g/></defs><rect x="-21" width="252" fill="#ffffff" y="-21" height="251.999995" fill-opacity="1"/><rect x="-21" width="252" fill="#ffffff" y="-21" height="251.999995" fill-opacity="1"/><rect x="-21" width="252" fill="#ffffff" y="-21" height="251.999995" fill-opacity="1"/><g fill="#231f20" fill-opacity="1"><g transform="translate(11.784988, 112.709316)"><g><path d="M 18.503906 -10.132812 L 18.503906 -14.683594 L 1.085938 -14.683594 L 1.085938 -10.132812 L 6.550781 -10.132812 L 6.550781 0 L 13.039062 0 L 13.039062 -10.132812 Z M 18.503906 -10.132812 "/></g></g></g><g fill="#231f20" fill-opacity="1"><g transform="translate(33.100884, 112.709316)"><g><path d="M 18.621094 -14.683594 L 12.128906 -14.683594 L 12.128906 -9.632812 L 7.722656 -9.632812 L 7.722656 -14.683594 L 1.203125 -14.683594 L 1.203125 0 L 7.722656 0 L 7.722656 -5.082031 L 12.128906 -5.082031 L 12.128906 0 L 18.621094 0 Z M 18.621094 -14.683594 "/></g></g></g><g fill="#231f20" fill-opacity="1"><g transform="translate(54.651725, 112.709316)"><g><path d="M 7.722656 -10.808594 L 16.769531 -10.808594 L 16.769531 -14.683594 L 1.203125 -14.683594 L 1.203125 0 L 16.769531 0 L 16.769531 -3.90625 L 7.722656 -3.90625 L 7.722656 -5.519531 L 16.769531 -5.519531 L 16.769531 -9.191406 L 7.722656 -9.191406 Z M 7.722656 -10.808594 "/></g></g></g><g fill="#231f20" fill-opacity="1"><g transform="translate(74.352338, 112.709316)"><g/></g></g><g fill="#f4ba2f" fill-opacity="1"><g transform="translate(81.00829, 112.709316)"><g><path d="M 19.03125 0 L 19.117188 -7.578125 L 10.015625 -7.578125 L 10.015625 -5.199219 L 11.777344 -5.199219 C 11.367188 -4.609375 10.777344 -4.289062 10.074219 -4.289062 C 8.398438 -4.289062 7.429688 -5.375 7.429688 -7.34375 C 7.429688 -9.308594 8.398438 -10.398438 10.074219 -10.398438 C 11.394531 -10.398438 12.246094 -9.722656 12.539062 -8.429688 L 18.914062 -9.339844 C 18.148438 -12.953125 15.007812 -14.949219 10.042969 -14.949219 C 4.230469 -14.949219 0.96875 -12.1875 0.96875 -7.34375 C 0.96875 -2.496094 4.230469 0.265625 10.042969 0.265625 C 12.101562 0.265625 13.921875 -0.382812 15.417969 -1.554688 L 16.152344 0 Z M 19.03125 0 "/></g></g></g><g fill="#f4ba2f" fill-opacity="1"><g transform="translate(103.058407, 112.709316)"><g><path d="M 16.621094 -6.34375 C 17.914062 -7.105469 18.621094 -8.339844 18.621094 -9.984375 C 18.621094 -12.980469 16.445312 -14.683594 12.570312 -14.683594 L 1.203125 -14.683594 L 1.203125 0 L 7.722656 0 L 7.722656 -5.375 L 10.367188 -5.375 C 11.835938 -5.257812 12.65625 -4.523438 12.65625 -3.320312 L 12.65625 0 L 18.503906 0 L 18.503906 -2.410156 C 18.503906 -4.171875 17.855469 -5.519531 16.621094 -6.34375 Z M 11.25 -9.046875 L 7.722656 -9.046875 L 7.722656 -10.808594 L 11.25 -10.808594 C 12.246094 -10.808594 12.804688 -10.484375 12.804688 -9.898438 C 12.804688 -9.339844 12.246094 -9.046875 11.25 -9.046875 Z M 11.25 -9.046875 "/></g></g></g><g fill="#f4ba2f" fill-opacity="1"><g transform="translate(124.433042, 112.709316)"><g><path d="M 7.722656 -14.683594 L 1.203125 -14.683594 L 1.203125 0 L 7.722656 0 Z M 7.722656 -14.683594 "/></g></g></g><g fill="#f4ba2f" fill-opacity="1"><g transform="translate(135.088054, 112.709316)"><g><path d="M 7.722656 -10.808594 L 16.769531 -10.808594 L 16.769531 -14.683594 L 1.203125 -14.683594 L 1.203125 0 L 7.722656 0 L 7.722656 -5.519531 L 16.769531 -5.519531 L 16.769531 -9.191406 L 7.722656 -9.191406 Z M 7.722656 -10.808594 "/></g></g></g><g fill="#f4ba2f" fill-opacity="1"><g transform="translate(154.788664, 112.709316)"><g><path d="M 18.503906 -10.132812 L 18.503906 -14.683594 L 1.085938 -14.683594 L 1.085938 -10.132812 L 6.550781 -10.132812 L 6.550781 0 L 13.039062 0 L 13.039062 -10.132812 Z M 18.503906 -10.132812 "/></g></g></g><g fill="#f4ba2f" fill-opacity="1"><g transform="translate(176.104558, 112.709316)"><g><path d="M 14.539062 -2.230469 L 15.625 0 L 21.878906 0 L 14.363281 -14.683594 L 7.839844 -14.683594 L 0.207031 0 L 6.492188 0 L 7.605469 -2.230469 Z M 12.6875 -5.902344 L 9.457031 -5.902344 L 11.101562 -9.542969 Z M 12.6875 -5.902344 "/></g></g></g></svg>