<svg xmlns="http://www.w3.org/2000/svg" xmlns:xlink="http://www.w3.org/1999/xlink" width="280" zoomAndPan="magnify" viewBox="0 0 210 209.999996" height="280" preserveAspectRatio="xMidYMid meet" version="1.0"><defs><clipPath id="9c065d0bdb"><path d="M 23.367188 10.5 L 189.117188 10.5 L 189.117188 199.5 L 23.367188 199.5 Z M 23.367188 10.5 " clip-rule="nonzero"/></clipPath></defs><rect x="-21" width="252" fill="#ffffff" y="-21" height="251.999995" fill-opacity="1"/><rect x="-21" width="252" fill="#ffffff" y="-21" height="251.999995" fill-opacity="1"/><g clip-path="url(#9c065d0bdb)"><path fill="#000000" d="M 189.085938 49.914062 C 189.085938 49.894531 189.09375 49.882812 189.09375 49.863281 C 189.097656 49.6875 188.960938 49.542969 188.78125 49.539062 C 188.714844 49.535156 188.640625 49.535156 188.566406 49.53125 L 106.558594 10.671875 C 106.558594 10.671875 106.554688 10.667969 106.554688 10.667969 C 106.550781 10.667969 106.546875 10.667969 106.542969 10.664062 C 106.535156 10.664062 106.53125 10.660156 106.523438 10.660156 C 106.511719 10.652344 106.5 10.652344 106.488281 10.652344 C 106.472656 10.648438 106.457031 10.644531 106.441406 10.640625 C 106.4375 10.640625 106.433594 10.640625 106.429688 10.640625 C 106.425781 10.640625 106.421875 10.640625 106.417969 10.640625 C 106.414062 10.640625 106.410156 10.640625 106.40625 10.640625 C 106.398438 10.640625 106.386719 10.644531 106.378906 10.648438 C 106.359375 10.648438 106.34375 10.652344 106.328125 10.65625 C 106.320312 10.660156 106.3125 10.664062 106.300781 10.664062 C 106.296875 10.667969 106.292969 10.667969 106.289062 10.671875 L 23.597656 49.519531 C 23.589844 49.523438 23.585938 49.527344 23.582031 49.527344 C 23.566406 49.535156 23.554688 49.542969 23.542969 49.546875 C 23.519531 49.5625 23.496094 49.574219 23.476562 49.59375 C 23.472656 49.597656 23.46875 49.597656 23.46875 49.601562 C 23.464844 49.601562 23.464844 49.601562 23.464844 49.601562 C 23.457031 49.609375 23.449219 49.625 23.441406 49.632812 C 23.433594 49.644531 23.417969 49.65625 23.410156 49.667969 C 23.40625 49.675781 23.40625 49.683594 23.402344 49.691406 C 23.402344 49.695312 23.398438 49.695312 23.398438 49.699219 C 23.394531 49.699219 23.394531 49.703125 23.394531 49.703125 C 23.394531 49.707031 23.390625 49.714844 23.390625 49.71875 C 23.378906 49.75 23.371094 49.777344 23.371094 49.808594 C 23.371094 49.8125 23.367188 49.816406 23.367188 49.820312 C 23.367188 49.824219 23.367188 49.824219 23.367188 49.824219 C 23.367188 49.828125 23.367188 49.828125 23.367188 49.828125 L 23.367188 199.039062 C 23.367188 199.21875 23.511719 199.359375 23.6875 199.359375 L 29.433594 199.359375 C 29.609375 199.359375 29.753906 199.21875 29.753906 199.042969 L 29.753906 191.765625 L 54.9375 191.765625 L 54.9375 199.042969 C 54.9375 199.21875 55.078125 199.359375 55.253906 199.359375 L 182.96875 199.359375 C 182.980469 199.359375 182.988281 199.355469 183 199.355469 C 183.007812 199.355469 183.019531 199.359375 183.027344 199.359375 L 188.777344 199.359375 C 188.953125 199.359375 189.09375 199.21875 189.097656 199.042969 L 189.097656 49.984375 C 189.097656 49.980469 189.09375 49.980469 189.09375 49.976562 C 189.09375 49.953125 189.089844 49.933594 189.085938 49.914062 Z M 48.863281 171.183594 C 49.226562 170.902344 49.464844 170.46875 49.464844 169.980469 C 49.464844 169.488281 49.226562 169.054688 48.863281 168.777344 C 49.226562 168.5 49.464844 168.066406 49.464844 167.574219 C 49.464844 166.738281 48.78125 166.054688 47.941406 166.054688 L 36.449219 166.054688 C 35.609375 166.054688 34.929688 166.738281 34.929688 167.574219 C 34.929688 168.066406 35.167969 168.5 35.527344 168.777344 C 35.167969 169.054688 34.929688 169.488281 34.929688 169.980469 C 34.929688 170.472656 35.167969 170.902344 35.527344 171.183594 C 35.167969 171.460938 34.929688 171.894531 34.929688 172.382812 C 34.929688 172.714844 35.035156 173.015625 35.214844 173.265625 L 29.753906 173.265625 L 29.753906 156.042969 L 54.9375 156.042969 L 54.9375 173.265625 L 49.175781 173.265625 C 49.355469 173.015625 49.464844 172.714844 49.464844 172.382812 C 49.464844 171.894531 49.226562 171.460938 48.863281 171.183594 Z M 48.863281 153.320312 C 49.226562 153.042969 49.464844 152.609375 49.464844 152.117188 C 49.464844 151.625 49.226562 151.195312 48.863281 150.914062 C 49.226562 150.636719 49.464844 150.203125 49.464844 149.714844 C 49.464844 148.972656 48.929688 148.355469 48.222656 148.222656 L 48.222656 141.410156 C 48.222656 141.230469 48.082031 141.089844 47.90625 141.089844 L 36.488281 141.089844 C 36.3125 141.089844 36.167969 141.230469 36.167969 141.410156 L 36.167969 148.222656 C 35.464844 148.355469 34.929688 148.972656 34.929688 149.714844 C 34.929688 150.203125 35.167969 150.636719 35.527344 150.914062 C 35.167969 151.195312 34.929688 151.625 34.929688 152.117188 C 34.929688 152.609375 35.167969 153.042969 35.527344 153.320312 C 35.167969 153.597656 34.929688 154.03125 34.929688 154.523438 C 34.929688 154.851562 35.035156 155.15625 35.214844 155.40625 L 29.753906 155.40625 L 29.753906 92.792969 L 41.488281 92.792969 C 41.476562 92.835938 41.464844 92.875 41.457031 92.917969 C 41.25 94.097656 42.449219 95.535156 42.792969 95.921875 L 42.792969 97.515625 L 40.015625 98.820312 C 39.941406 98.792969 39.859375 98.789062 39.785156 98.824219 C 39.675781 98.878906 37.113281 100.109375 35.738281 101.183594 C 34.234375 102.359375 31.859375 109.824219 31.839844 109.898438 C 31.796875 110.042969 31.863281 110.195312 32 110.265625 L 35.851562 112.257812 L 34.964844 133.230469 C 34.960938 133.316406 34.992188 133.402344 35.054688 133.464844 C 35.15625 133.570312 37.609375 136.058594 42.945312 136.058594 C 48.273438 136.058594 50.996094 133.582031 51.109375 133.476562 C 51.179688 133.414062 51.214844 133.324219 51.210938 133.230469 L 50.324219 112.265625 L 52.425781 111.269531 L 54.335938 112.257812 L 53.449219 133.230469 C 53.445312 133.316406 53.476562 133.402344 53.535156 133.464844 C 53.636719 133.570312 56.066406 136.023438 61.332031 136.054688 L 55.003906 144.183594 C 54.988281 144.203125 54.976562 144.226562 54.964844 144.246094 C 54.964844 144.25 54.960938 144.253906 54.960938 144.257812 C 54.945312 144.292969 54.9375 144.328125 54.9375 144.367188 C 54.9375 144.371094 54.933594 144.375 54.933594 144.378906 L 54.933594 155.40625 L 49.175781 155.40625 C 49.355469 155.15625 49.464844 154.851562 49.464844 154.523438 C 49.464844 154.03125 49.226562 153.597656 48.863281 153.320312 Z M 42.085938 93.03125 C 42.101562 92.949219 42.121094 92.867188 42.144531 92.792969 L 59.96875 92.792969 C 59.960938 92.835938 59.949219 92.875 59.941406 92.917969 C 59.730469 94.097656 60.929688 95.535156 61.277344 95.921875 L 61.277344 97.515625 L 58.5 98.820312 C 58.421875 98.792969 58.339844 98.789062 58.265625 98.824219 C 58.160156 98.878906 55.59375 100.109375 54.222656 101.183594 C 53.65625 101.625 52.96875 102.953125 52.332031 104.441406 C 51.6875 102.949219 51 101.621094 50.441406 101.183594 C 49.066406 100.109375 46.503906 98.878906 46.394531 98.824219 C 46.296875 98.78125 46.183594 98.785156 46.09375 98.839844 C 46.082031 98.84375 46.082031 98.855469 46.070312 98.859375 L 43.433594 97.621094 L 43.433594 95.796875 C 43.433594 95.714844 43.398438 95.636719 43.34375 95.574219 C 42.941406 95.15625 41.933594 93.882812 42.085938 93.03125 Z M 182.710938 143.464844 L 172.347656 130.441406 L 172.347656 88.023438 C 173.566406 87.421875 174.410156 86.171875 174.410156 84.722656 C 174.414062 83.40625 173.722656 82.207031 172.59375 81.542969 L 172.597656 79.042969 C 172.597656 79.042969 172.597656 79.039062 172.597656 79.039062 L 172.597656 76.703125 C 172.597656 76.328125 172.503906 75.976562 172.347656 75.671875 L 172.347656 75.484375 C 175.808594 75.992188 179.273438 76.269531 182.710938 76.316406 Z M 60.570312 93.03125 C 60.582031 92.949219 60.605469 92.867188 60.628906 92.792969 L 63.886719 92.792969 C 63.878906 92.835938 63.863281 92.875 63.855469 92.917969 C 63.648438 94.097656 64.847656 95.535156 65.195312 95.921875 L 65.195312 97.515625 L 63.441406 98.339844 L 61.914062 97.621094 L 61.914062 95.796875 C 61.914062 95.714844 61.882812 95.636719 61.828125 95.574219 C 61.425781 95.15625 60.417969 93.882812 60.570312 93.03125 Z M 60.992188 92.15625 C 61.113281 92.027344 61.253906 91.9375 61.40625 91.886719 C 61.722656 91.789062 62.074219 91.882812 62.445312 92.15625 Z M 75.347656 92.792969 L 78.222656 92.792969 L 78.222656 122.171875 L 77.867188 122.171875 C 77.695312 122.171875 77.558594 122.300781 77.546875 122.46875 L 77.078125 130.234375 L 73.488281 130.234375 L 72.726562 112.265625 L 76.621094 110.421875 C 76.761719 110.355469 76.835938 110.195312 76.792969 110.046875 C 76.773438 109.972656 74.355469 102.367188 72.839844 101.183594 C 71.46875 100.109375 68.90625 98.878906 68.796875 98.824219 C 68.699219 98.78125 68.585938 98.785156 68.492188 98.839844 C 68.484375 98.84375 68.480469 98.855469 68.472656 98.859375 L 65.832031 97.621094 L 65.832031 95.796875 C 65.832031 95.714844 65.800781 95.636719 65.746094 95.574219 C 65.34375 95.15625 64.335938 93.882812 64.488281 93.03125 C 64.5 92.949219 64.523438 92.871094 64.546875 92.792969 Z M 64.910156 92.15625 C 65.03125 92.027344 65.171875 91.9375 65.324219 91.886719 C 65.640625 91.789062 65.992188 91.882812 66.359375 92.15625 Z M 95.277344 65.570312 C 94.859375 65.570312 94.476562 65.722656 94.167969 65.976562 C 90.070312 65.265625 85.679688 64.144531 80.796875 62.574219 C 80.074219 62.339844 79.355469 62.09375 78.636719 61.839844 C 79.757812 61.230469 80.875 60.605469 81.984375 59.960938 C 82.304688 60.46875 82.492188 61.039062 82.492188 61.644531 C 82.488281 61.730469 82.519531 61.816406 82.582031 61.875 C 82.640625 61.9375 82.722656 61.972656 82.808594 61.972656 L 86.703125 61.976562 C 86.703125 61.976562 86.703125 61.976562 86.707031 61.976562 C 86.898438 61.988281 87.035156 61.835938 87.035156 61.65625 C 87.035156 61.625 87.027344 61.589844 87.019531 61.5625 C 87.058594 59.5 89.238281 57.832031 91.914062 57.832031 C 94.613281 57.832031 96.808594 59.53125 96.804688 61.660156 C 96.804688 61.746094 96.839844 61.828125 96.898438 61.890625 C 96.957031 61.949219 97.039062 61.984375 97.125 61.984375 L 98.789062 61.984375 L 98.789062 66.617188 C 98.117188 66.546875 97.4375 66.46875 96.75 66.375 C 96.417969 65.902344 95.894531 65.585938 95.277344 65.570312 Z M 58.28125 69.84375 C 51.023438 72.136719 43.363281 73.785156 35.515625 74.742188 C 33.6875 74.964844 31.722656 75.171875 29.753906 75.1875 L 29.753906 61.613281 C 29.753906 59.53125 31.953125 57.832031 34.648438 57.832031 C 37.347656 57.832031 39.542969 59.53125 39.542969 61.621094 C 39.542969 61.796875 39.6875 61.941406 39.863281 61.941406 L 43.75 61.945312 C 43.753906 61.945312 43.753906 61.945312 43.757812 61.945312 C 43.929688 61.9375 44.082031 61.800781 44.082031 61.625 C 44.082031 61.59375 44.078125 61.566406 44.070312 61.539062 C 44.125 59.488281 46.300781 57.835938 48.964844 57.835938 C 51.664062 57.835938 53.859375 59.53125 53.859375 61.632812 C 53.859375 61.808594 54.003906 61.953125 54.179688 61.953125 L 58.066406 61.953125 C 58.070312 61.953125 58.074219 61.953125 58.074219 61.953125 C 58.253906 61.953125 58.402344 61.8125 58.402344 61.636719 C 58.402344 61.605469 58.394531 61.574219 58.386719 61.542969 C 58.4375 59.492188 60.613281 57.835938 63.28125 57.835938 C 65.980469 57.835938 68.175781 59.53125 68.175781 61.644531 C 68.175781 61.820312 68.320312 61.964844 68.496094 61.964844 L 72.386719 61.964844 C 72.386719 61.964844 72.390625 61.964844 72.390625 61.964844 C 72.539062 61.964844 72.71875 61.824219 72.71875 61.648438 C 72.71875 61.613281 72.710938 61.582031 72.703125 61.554688 C 72.710938 61.109375 72.824219 60.6875 73.015625 60.296875 C 74.363281 60.886719 75.71875 61.4375 77.078125 61.949219 C 70.925781 65.1875 64.625 67.839844 58.28125 69.84375 Z M 43.003906 87.117188 Z M 65.402344 98.125 L 68.296875 99.484375 C 68.257812 99.757812 68.175781 100.144531 68.023438 100.554688 C 66.652344 99.679688 64.964844 98.867188 64.878906 98.824219 C 64.78125 98.777344 64.667969 98.785156 64.578125 98.839844 C 64.566406 98.84375 64.5625 98.855469 64.554688 98.859375 L 64.195312 98.691406 Z M 170.722656 88.085938 Z M 168.859375 76.699219 L 168.855469 79.777344 L 168.855469 80.921875 L 160.1875 80.921875 L 160.1875 72.773438 C 163.308594 73.710938 166.464844 74.46875 169.625 75.039062 C 169.164062 75.414062 168.859375 76.019531 168.859375 76.699219 Z M 159.546875 80.921875 L 157.632812 80.921875 C 157.730469 79.746094 157.265625 78.59375 156.363281 77.820312 L 156.804688 75.359375 C 156.804688 75.355469 156.804688 75.355469 156.804688 75.355469 L 157.21875 73.058594 C 157.300781 72.597656 157.230469 72.152344 157.058594 71.769531 C 157.882812 72.050781 158.714844 72.324219 159.550781 72.582031 L 159.550781 80.921875 Z M 153.539062 72.398438 L 152.996094 75.425781 C 152.996094 75.425781 152.996094 75.425781 152.996094 75.429688 L 152.683594 77.160156 C 151.457031 77.609375 150.5625 78.667969 150.332031 79.960938 C 150.273438 80.285156 150.261719 80.605469 150.289062 80.921875 L 148.046875 80.921875 L 148.046875 68.136719 C 150.199219 69.144531 152.386719 70.058594 154.59375 70.886719 C 154.0625 71.175781 153.660156 71.726562 153.539062 72.398438 Z M 147.40625 80.921875 L 135.886719 80.921875 L 135.886719 74.722656 C 136.070312 74.75 136.257812 74.769531 136.445312 74.769531 L 136.519531 74.769531 C 138.554688 74.730469 140.179688 73.046875 140.140625 71.011719 C 140.113281 69.699219 139.398438 68.511719 138.257812 67.871094 L 138.246094 67.257812 L 146.226562 67.257812 C 146.617188 67.453125 147.011719 67.644531 147.40625 67.835938 Z M 129.046875 87.855469 L 132.1875 87.855469 C 132.363281 87.855469 132.503906 87.710938 132.503906 87.535156 L 132.503906 81.558594 L 135.246094 81.558594 L 135.246094 95.183594 L 129.046875 95.183594 Z M 129.046875 95.820312 L 135.246094 95.820312 L 135.246094 109.441406 L 129.046875 109.441406 Z M 135.886719 95.820312 L 142.582031 95.820312 L 142.582031 109.441406 L 135.886719 109.441406 Z M 150.480469 130.234375 L 148.046875 130.234375 L 148.046875 124.378906 L 151.132812 124.378906 Z M 151.792969 122.171875 C 151.789062 122.171875 151.789062 122.171875 151.789062 122.171875 L 151.664062 122.171875 C 151.5 122.171875 151.363281 122.292969 151.34375 122.453125 L 151.203125 123.742188 L 148.046875 123.742188 L 148.046875 116.929688 L 159.546875 116.929688 L 159.546875 122.171875 Z M 142.582031 110.082031 L 142.582031 116.609375 C 142.582031 116.785156 142.722656 116.929688 142.902344 116.929688 L 147.40625 116.929688 L 147.40625 123.742188 L 135.886719 123.742188 L 135.886719 110.082031 Z M 147.40625 124.378906 L 147.40625 130.234375 L 135.886719 130.234375 L 135.886719 124.378906 Z M 135.246094 130.234375 L 127.789062 130.234375 L 127.136719 124.378906 L 135.246094 124.378906 Z M 163.132812 122.46875 C 163.121094 122.300781 162.980469 122.171875 162.8125 122.171875 L 160.1875 122.171875 L 160.1875 116.929688 L 165 116.929688 C 165.175781 116.929688 165.320312 116.785156 165.320312 116.609375 L 165.320312 110.082031 L 171.707031 110.082031 L 171.707031 123.742188 L 163.207031 123.742188 Z M 142.902344 88.402344 C 142.722656 88.402344 142.582031 88.542969 142.582031 88.71875 L 142.582031 95.183594 L 135.886719 95.183594 L 135.886719 81.558594 L 147.40625 81.558594 L 147.40625 88.402344 Z M 114.460938 66.070312 C 114.074219 66.070312 113.71875 66.195312 113.421875 66.414062 C 112.8125 66.484375 112.199219 66.546875 111.585938 66.601562 L 111.585938 61.996094 L 115.335938 61.996094 C 115.335938 62 115.339844 62 115.34375 61.996094 C 115.527344 62.007812 115.667969 61.859375 115.667969 61.679688 C 115.667969 61.644531 115.664062 61.609375 115.652344 61.578125 C 115.679688 59.507812 117.867188 57.832031 120.546875 57.832031 C 121.480469 57.832031 122.347656 58.039062 123.089844 58.386719 L 123.089844 64.820312 C 120.578125 65.34375 117.894531 65.832031 115.101562 66.203125 C 114.902344 66.125 114.691406 66.078125 114.460938 66.070312 Z M 138.210938 65.367188 L 138.164062 63.03125 C 138.164062 62.921875 138.148438 62.816406 138.128906 62.710938 C 138.46875 62.929688 138.804688 63.144531 139.148438 63.355469 C 141.050781 64.519531 142.988281 65.605469 144.960938 66.621094 L 138.234375 66.621094 Z M 137.160156 61.261719 C 137.070312 61.210938 136.980469 61.164062 136.882812 61.128906 C 136.546875 60.898438 136.214844 60.667969 135.886719 60.4375 L 135.886719 57.917969 C 137.628906 58.203125 139.027344 59.207031 139.542969 60.507812 C 138.75 60.769531 137.957031 61.023438 137.160156 61.261719 Z M 134.863281 57.832031 C 134.992188 57.832031 135.121094 57.839844 135.246094 57.847656 L 135.246094 59.984375 C 134.4375 59.402344 133.640625 58.792969 132.847656 58.171875 C 133.464844 57.957031 134.144531 57.832031 134.863281 57.832031 Z M 123.726562 58.746094 C 124.777344 59.4375 125.441406 60.46875 125.441406 61.613281 C 125.441406 61.617188 125.4375 61.679688 125.4375 61.683594 C 125.4375 61.769531 125.472656 61.851562 125.53125 61.910156 C 125.589844 61.972656 125.671875 62.007812 125.757812 62.007812 L 129.652344 62.007812 C 129.652344 62.011719 129.65625 62.011719 129.660156 62.007812 C 129.867188 62.007812 129.984375 61.871094 129.984375 61.691406 C 129.984375 61.652344 129.980469 61.621094 129.96875 61.585938 C 129.980469 60.28125 130.859375 59.128906 132.175781 58.457031 C 133.183594 59.257812 134.207031 60.027344 135.246094 60.765625 L 135.246094 61.359375 C 135.03125 61.519531 134.847656 61.730469 134.710938 61.972656 C 132.710938 62.53125 130.65625 63.070312 128.59375 63.570312 C 127.074219 63.941406 125.441406 64.320312 123.726562 64.6875 Z M 146.367188 66.621094 C 144.027344 65.457031 141.726562 64.1875 139.484375 62.8125 C 138.910156 62.460938 138.347656 62.101562 137.789062 61.734375 C 138.433594 61.539062 139.074219 61.332031 139.714844 61.125 C 139.742188 61.285156 139.761719 61.449219 139.761719 61.613281 L 140.074219 61.625 L 139.753906 61.6875 C 139.75 61.773438 139.785156 61.855469 139.84375 61.917969 C 139.902344 61.980469 139.988281 62.015625 140.074219 62.015625 L 143.96875 62.019531 C 143.96875 62.019531 143.972656 62.019531 143.976562 62.019531 C 144.179688 62.03125 144.300781 61.878906 144.300781 61.699219 C 144.300781 61.664062 144.296875 61.628906 144.285156 61.59375 C 144.292969 60.582031 144.816406 59.667969 145.664062 58.992188 C 146.246094 58.761719 146.824219 58.53125 147.40625 58.292969 L 147.40625 66.621094 Z M 123.089844 65.472656 L 123.089844 66.621094 L 116.671875 66.621094 C 118.902344 66.289062 121.050781 65.894531 123.089844 65.472656 Z M 123.726562 65.335938 C 125.496094 64.960938 127.179688 64.570312 128.746094 64.191406 C 130.667969 63.722656 132.582031 63.222656 134.453125 62.707031 C 134.433594 62.835938 134.425781 62.96875 134.425781 63.105469 L 134.472656 65.441406 L 134.472656 65.566406 L 134.484375 66.179688 C 134.484375 66.179688 134.484375 66.179688 134.484375 66.183594 L 134.492188 66.621094 L 123.726562 66.621094 Z M 134.507812 67.257812 L 134.519531 67.941406 C 133.402344 68.628906 132.734375 69.839844 132.757812 71.15625 C 132.789062 72.730469 133.828125 74.070312 135.246094 74.5625 L 135.246094 80.921875 L 132.503906 80.921875 L 132.503906 80.433594 C 132.503906 80.257812 132.363281 80.113281 132.183594 80.113281 L 123.726562 80.113281 L 123.726562 67.257812 Z M 106.308594 109.441406 L 99.425781 109.441406 L 99.425781 95.820312 L 106.308594 95.820312 Z M 128.726562 112.648438 C 128.902344 112.648438 129.046875 112.507812 129.046875 112.328125 L 129.046875 110.082031 L 135.246094 110.082031 L 135.246094 123.742188 L 127.066406 123.742188 L 126.921875 122.453125 C 126.902344 122.292969 126.769531 122.171875 126.605469 122.171875 L 126.480469 122.171875 C 126.476562 122.171875 126.476562 122.171875 126.476562 122.171875 L 123.726562 122.171875 L 123.726562 112.648438 Z M 163.601562 130.234375 L 163.246094 124.378906 L 171.707031 124.378906 L 171.707031 130.234375 Z M 171.707031 109.441406 L 165.320312 109.441406 L 165.320312 95.820312 L 171.707031 95.820312 Z M 148.046875 88.402344 L 148.046875 81.558594 L 150.402344 81.558594 C 150.757812 82.898438 151.859375 83.980469 153.3125 84.242188 C 153.527344 84.28125 153.75 84.300781 153.96875 84.300781 C 155.652344 84.300781 157.105469 83.164062 157.527344 81.558594 L 159.546875 81.558594 L 159.546875 88.398438 L 148.046875 88.398438 Z M 148.046875 67.433594 L 148.046875 67.257812 L 159.546875 67.257812 L 159.546875 71.914062 C 155.644531 70.699219 151.792969 69.199219 148.046875 67.433594 Z M 148.046875 66.621094 L 148.046875 58.027344 C 148.160156 57.980469 148.273438 57.933594 148.382812 57.886719 C 148.644531 57.855469 148.910156 57.832031 149.179688 57.832031 C 151.878906 57.832031 154.074219 59.53125 154.074219 61.617188 L 154.390625 61.621094 L 154.070312 61.699219 C 154.066406 61.785156 154.101562 61.867188 154.160156 61.929688 C 154.21875 61.992188 154.304688 62.027344 154.390625 62.027344 L 158.289062 62.03125 C 158.289062 62.03125 158.289062 62.03125 158.292969 62.03125 C 158.472656 62.03125 158.621094 61.890625 158.621094 61.710938 C 158.621094 61.671875 158.613281 61.636719 158.601562 61.601562 C 158.605469 60.773438 158.957031 60.011719 159.546875 59.386719 L 159.546875 66.621094 Z M 101.019531 61.988281 C 101.019531 61.984375 101.023438 61.988281 101.023438 61.988281 C 101.214844 61.988281 101.351562 61.847656 101.351562 61.667969 C 101.351562 61.632812 101.34375 61.601562 101.335938 61.570312 C 101.371094 59.503906 103.550781 57.832031 106.230469 57.832031 C 108.484375 57.832031 110.382812 59.019531 110.949219 60.65625 L 110.949219 66.621094 L 99.425781 66.621094 L 99.425781 61.988281 Z M 112.761719 67.257812 C 112.65625 67.507812 112.589844 67.78125 112.582031 68.074219 L 112.484375 71.148438 C 112.484375 71.152344 112.484375 71.152344 112.484375 71.152344 L 112.429688 72.910156 C 112.113281 73.085938 111.832031 73.300781 111.585938 73.550781 L 111.585938 67.257812 Z M 111.585938 78.742188 C 112.226562 79.386719 113.105469 79.800781 114.085938 79.832031 L 114.199219 79.832031 C 116.207031 79.832031 117.824219 78.261719 117.886719 76.261719 C 117.929688 74.945312 117.273438 73.726562 116.167969 73.027344 L 116.222656 71.269531 C 116.222656 71.269531 116.222656 71.265625 116.222656 71.265625 L 116.234375 70.792969 L 116.246094 70.527344 L 116.316406 68.191406 C 116.328125 67.867188 116.261719 67.550781 116.136719 67.257812 L 123.085938 67.257812 L 123.085938 80.113281 L 120.765625 80.113281 C 120.589844 80.113281 120.445312 80.257812 120.445312 80.433594 L 120.445312 80.921875 L 111.585938 80.921875 Z M 120.449219 81.558594 L 120.449219 84.121094 L 111.585938 84.121094 L 111.585938 81.558594 Z M 110.949219 84.121094 L 106.628906 84.121094 C 106.449219 84.121094 106.308594 84.265625 106.308594 84.441406 L 106.308594 95.183594 L 99.425781 95.183594 L 99.425781 81.558594 L 110.945312 81.558594 L 110.945312 84.121094 Z M 99.425781 110.082031 L 106.308594 110.082031 L 106.308594 112.328125 C 106.308594 112.507812 106.449219 112.648438 106.628906 112.648438 L 110.949219 112.648438 L 110.949219 123.742188 L 99.425781 123.742188 Z M 111.585938 112.648438 L 123.089844 112.648438 L 123.089844 122.171875 L 115.453125 122.171875 C 115.285156 122.171875 115.144531 122.300781 115.136719 122.46875 L 115.058594 123.742188 L 111.585938 123.742188 Z M 115.019531 124.378906 L 114.667969 130.234375 L 111.585938 130.234375 L 111.585938 124.378906 Z M 64.378906 99.484375 C 64.308594 99.984375 64.097656 100.871094 63.535156 101.566406 C 62.933594 100.832031 62.734375 99.882812 62.671875 99.402344 C 62.671875 99.402344 62.675781 99.402344 62.679688 99.398438 L 63.441406 99.042969 Z M 171.707031 95.183594 L 165.320312 95.183594 L 165.320312 88.71875 C 165.320312 88.542969 165.175781 88.402344 165 88.402344 L 160.1875 88.402344 L 160.1875 81.558594 L 168.828125 81.558594 C 167.714844 82.222656 167.03125 83.410156 167.03125 84.714844 C 167.027344 86.75 168.683594 88.402344 170.71875 88.40625 L 170.722656 88.40625 C 171.0625 88.40625 171.394531 88.355469 171.707031 88.269531 Z M 160.1875 72.109375 L 160.1875 67.257812 L 171.707031 67.257812 L 171.707031 74.742188 C 167.847656 74.144531 163.992188 73.261719 160.1875 72.109375 Z M 171.707031 66.621094 L 160.1875 66.621094 L 160.1875 58.835938 C 161.058594 58.214844 162.21875 57.832031 163.496094 57.832031 C 166.195312 57.832031 168.394531 59.53125 168.390625 61.644531 C 168.390625 61.652344 168.386719 61.703125 168.386719 61.710938 C 168.382812 61.796875 168.417969 61.882812 168.476562 61.941406 C 168.535156 62.003906 168.617188 62.039062 168.707031 62.039062 L 171.707031 62.042969 Z M 73.347656 59.746094 C 74.191406 58.605469 75.78125 57.832031 77.597656 57.832031 C 79.25 57.832031 80.707031 58.46875 81.59375 59.449219 C 80.347656 60.171875 79.09375 60.875 77.832031 61.550781 C 76.332031 60.996094 74.835938 60.394531 73.347656 59.746094 Z M 102.960938 67.535156 C 103.589844 67.554688 104.21875 67.5625 104.847656 67.5625 C 106.90625 67.5625 108.945312 67.460938 110.945312 67.292969 L 110.945312 74.417969 C 110.6875 74.90625 110.527344 75.453125 110.511719 76.03125 C 110.488281 76.699219 110.652344 77.328125 110.945312 77.878906 L 110.945312 80.921875 L 99.425781 80.921875 L 99.425781 67.320312 C 100.621094 67.425781 101.800781 67.5 102.960938 67.535156 Z M 99.425781 124.378906 L 110.949219 124.378906 L 110.949219 130.234375 L 99.425781 130.234375 Z M 61.484375 98.125 L 62.691406 98.691406 L 62.417969 98.820312 C 62.339844 98.792969 62.257812 98.789062 62.183594 98.824219 C 62.097656 98.867188 60.410156 99.679688 59.042969 100.554688 C 58.867188 100.097656 58.789062 99.675781 58.753906 99.402344 C 58.757812 99.402344 58.757812 99.402344 58.761719 99.398438 Z M 172.347656 74.84375 L 172.347656 62.042969 L 172.605469 62.042969 C 172.605469 62.042969 172.609375 62.042969 172.609375 62.042969 C 172.789062 62.054688 172.9375 61.902344 172.9375 61.722656 C 172.9375 61.683594 172.929688 61.648438 172.917969 61.613281 C 172.921875 59.527344 175.117188 57.832031 177.8125 57.832031 C 180.511719 57.832031 182.710938 59.53125 182.707031 61.652344 C 182.707031 61.660156 182.703125 61.710938 182.703125 61.71875 C 182.703125 61.734375 182.707031 61.746094 182.710938 61.761719 L 182.710938 75.679688 C 179.273438 75.636719 175.808594 75.355469 172.347656 74.84375 Z M 29.753906 75.824219 C 31.753906 75.804688 33.742188 75.601562 35.59375 75.375 C 37.578125 75.132812 39.550781 74.847656 41.503906 74.515625 C 41.28125 74.859375 41.144531 75.277344 41.144531 75.730469 L 41.140625 78.066406 L 41.140625 80.570312 C 40.011719 81.230469 39.316406 82.429688 39.316406 83.746094 C 39.3125 84.730469 39.695312 85.65625 40.394531 86.355469 C 41.089844 87.050781 42.015625 87.433594 43 87.4375 L 43.003906 87.4375 C 45.039062 87.4375 46.695312 85.785156 46.695312 83.75 C 46.695312 82.4375 46.003906 81.234375 44.878906 80.570312 L 44.878906 78.8125 C 44.878906 78.8125 44.878906 78.8125 44.878906 78.808594 L 44.882812 75.734375 C 44.882812 75.191406 44.691406 74.675781 44.347656 74.289062 C 44.269531 74.199219 44.183594 74.125 44.09375 74.050781 C 48.195312 73.277344 52.222656 72.308594 56.144531 71.160156 C 55.957031 71.546875 55.878906 72.007812 55.964844 72.480469 L 56.503906 75.507812 L 56.808594 77.242188 C 55.816406 78.089844 55.34375 79.394531 55.574219 80.6875 C 55.886719 82.449219 57.410156 83.726562 59.199219 83.726562 C 59.417969 83.726562 59.636719 83.707031 59.851562 83.671875 C 61.851562 83.3125 63.191406 81.394531 62.839844 79.394531 C 62.609375 78.101562 61.714844 77.042969 60.488281 76.585938 L 60.183594 74.855469 C 60.183594 74.855469 60.183594 74.855469 60.183594 74.851562 L 59.644531 71.824219 C 59.535156 71.199219 59.175781 70.679688 58.703125 70.378906 C 64.058594 68.675781 69.382812 66.511719 74.609375 63.925781 C 74.425781 64.238281 74.308594 64.605469 74.300781 65.003906 L 74.25 67.339844 L 74.199219 69.839844 C 73.054688 70.476562 72.335938 71.664062 72.308594 72.976562 C 72.269531 75.011719 73.886719 76.699219 75.921875 76.742188 L 76.003906 76.742188 C 77.992188 76.742188 79.648438 75.125 79.691406 73.132812 C 79.71875 71.820312 79.050781 70.605469 77.9375 69.917969 L 77.988281 67.417969 C 77.988281 67.417969 77.988281 67.414062 77.988281 67.414062 L 78.039062 65.082031 C 78.058594 64.039062 77.371094 63.160156 76.433594 63.003906 C 76.917969 62.753906 77.398438 62.5 77.878906 62.246094 C 78.785156 62.574219 79.691406 62.886719 80.601562 63.179688 C 85.371094 64.714844 89.671875 65.820312 93.691406 66.539062 C 93.519531 66.839844 93.414062 67.191406 93.402344 67.574219 L 93.304688 70.648438 C 93.304688 70.652344 93.304688 70.65625 93.304688 70.65625 L 93.25 72.410156 C 92.101562 73.035156 91.371094 74.214844 91.332031 75.53125 C 91.265625 77.5625 92.871094 79.265625 94.90625 79.328125 L 95.023438 79.332031 C 97.027344 79.332031 98.644531 77.761719 98.707031 75.757812 C 98.75 74.445312 98.09375 73.222656 96.984375 72.527344 L 97.0625 70.027344 L 97.136719 67.691406 C 97.144531 67.472656 97.117188 67.257812 97.066406 67.058594 C 97.644531 67.132812 98.21875 67.199219 98.789062 67.257812 L 98.789062 130.234375 L 90.199219 130.234375 L 89.332031 122.453125 C 89.316406 122.292969 89.179688 122.171875 89.015625 122.171875 L 88.890625 122.171875 C 88.890625 122.171875 88.890625 122.171875 88.886719 122.171875 L 78.859375 122.171875 L 78.859375 92.792969 L 79.402344 92.792969 C 79.519531 93.015625 79.75 93.171875 80.019531 93.171875 L 80.457031 93.171875 C 80.84375 93.171875 81.15625 92.859375 81.15625 92.472656 C 81.15625 92.085938 80.84375 91.773438 80.457031 91.773438 L 79.839844 92.152344 L 67.210938 92.152344 C 67.199219 92.089844 67.175781 92.023438 67.125 91.972656 C 66.25 91.101562 65.503906 91.164062 65.132812 91.28125 C 64.710938 91.410156 64.359375 91.726562 64.125 92.152344 L 63.292969 92.152344 C 63.285156 92.089844 63.257812 92.023438 63.207031 91.972656 C 62.332031 91.101562 61.585938 91.164062 61.214844 91.28125 C 60.796875 91.410156 60.445312 91.726562 60.207031 92.152344 L 44.808594 92.152344 C 44.800781 92.089844 44.773438 92.023438 44.722656 91.972656 C 43.847656 91.101562 43.101562 91.164062 42.730469 91.28125 C 42.3125 91.410156 41.960938 91.726562 41.722656 92.152344 L 29.753906 92.152344 Z M 42.921875 91.886719 C 43.238281 91.789062 43.59375 91.882812 43.960938 92.152344 L 42.507812 92.152344 C 42.628906 92.027344 42.769531 91.9375 42.921875 91.886719 Z M 43 98.125 L 45.898438 99.484375 C 45.769531 100.359375 45.238281 102.425781 43.105469 102.546875 C 40.871094 102.421875 40.378906 100.222656 40.269531 99.402344 C 40.273438 99.402344 40.277344 99.402344 40.277344 99.398438 Z M 49.074219 191.128906 C 49.253906 190.878906 49.363281 190.574219 49.363281 190.246094 C 49.363281 189.753906 49.125 189.320312 48.761719 189.042969 C 49.125 188.765625 49.363281 188.332031 49.363281 187.839844 C 49.363281 187.347656 49.125 186.917969 48.761719 186.636719 C 49.125 186.359375 49.363281 185.925781 49.363281 185.433594 C 49.363281 184.597656 48.679688 183.914062 47.839844 183.914062 L 36.347656 183.914062 C 35.507812 183.914062 34.828125 184.597656 34.828125 185.433594 C 34.828125 185.925781 35.066406 186.359375 35.425781 186.636719 C 35.066406 186.917969 34.828125 187.347656 34.828125 187.839844 C 34.828125 188.332031 35.066406 188.765625 35.425781 189.042969 C 35.066406 189.320312 34.828125 189.753906 34.828125 190.246094 C 34.828125 190.574219 34.933594 190.878906 35.113281 191.128906 L 29.753906 191.128906 L 29.753906 173.90625 L 54.9375 173.90625 L 54.9375 191.128906 Z M 49.074219 191.128906 " fill-opacity="1" fill-rule="nonzero"/></g><path fill="#f5ce76" d="M 49.859375 111.78125 L 53.699219 109.960938 C 53.226562 108.457031 51.160156 102.558594 50.046875 101.6875 C 49.042969 100.902344 47.300781 99.992188 46.519531 99.597656 C 46.347656 100.636719 45.675781 103.042969 43.105469 103.183594 C 40.507812 103.042969 39.832031 100.636719 39.660156 99.597656 C 38.878906 99.992188 37.136719 100.902344 36.132812 101.6875 C 35.023438 102.550781 32.988281 108.351562 32.527344 109.820312 L 36.328125 111.785156 C 36.4375 111.84375 36.503906 111.957031 36.5 112.082031 L 35.609375 133.113281 C 36.097656 133.546875 38.464844 135.421875 42.945312 135.421875 C 47.4375 135.421875 50.023438 133.542969 50.570312 133.101562 L 49.679688 112.082031 C 49.675781 111.953125 49.746094 111.835938 49.859375 111.78125 Z M 49.589844 110.5625 C 49.589844 110.738281 49.445312 110.878906 49.269531 110.878906 L 47.910156 110.878906 L 47.910156 122.667969 L 38.570312 122.667969 L 38.570312 107.914062 L 41.410156 107.914062 L 41.410156 105.871094 C 41.410156 105.695312 41.554688 105.550781 41.730469 105.550781 L 49.269531 105.550781 C 49.445312 105.550781 49.589844 105.695312 49.589844 105.871094 Z M 48.722656 190.246094 C 48.722656 190.730469 48.328125 191.128906 47.839844 191.128906 L 36.347656 191.128906 C 35.863281 191.128906 35.464844 190.730469 35.464844 190.246094 C 35.464844 189.757812 35.863281 189.363281 36.347656 189.363281 L 47.839844 189.363281 C 48.328125 189.363281 48.722656 189.757812 48.722656 190.246094 Z M 48.722656 187.839844 C 48.722656 188.328125 48.328125 188.722656 47.839844 188.722656 L 36.347656 188.722656 C 35.863281 188.722656 35.464844 188.328125 35.464844 187.839844 C 35.464844 187.355469 35.863281 186.957031 36.347656 186.957031 L 47.839844 186.957031 C 48.328125 186.957031 48.722656 187.355469 48.722656 187.839844 Z M 48.722656 185.4375 C 48.722656 185.921875 48.328125 186.320312 47.839844 186.320312 L 36.347656 186.320312 C 35.863281 186.320312 35.464844 185.921875 35.464844 185.4375 C 35.464844 184.949219 35.863281 184.554688 36.347656 184.554688 L 47.839844 184.554688 C 48.328125 184.554688 48.722656 184.949219 48.722656 185.4375 Z M 126.472656 87.855469 L 128.410156 87.855469 L 128.410156 112.011719 L 106.945312 112.011719 L 106.945312 84.757812 L 120.449219 84.757812 L 120.449219 87.285156 L 108.882812 87.285156 L 108.882812 109.484375 L 126.472656 109.484375 Z M 146.253906 112.378906 L 161.648438 112.378906 L 161.648438 92.953125 L 146.253906 92.953125 Z M 149.324219 96.824219 L 158.578125 96.824219 L 158.578125 108.503906 L 149.324219 108.503906 Z M 41.605469 82.714844 C 41.117188 83.101562 41.324219 84.011719 41.570312 84.492188 C 41.925781 85.199219 42.640625 85.53125 43.527344 85.402344 C 43.703125 85.378906 43.863281 85.5 43.890625 85.675781 C 43.914062 85.847656 43.792969 86.011719 43.621094 86.035156 C 43.464844 86.058594 43.3125 86.066406 43.167969 86.066406 C 42.210938 86.066406 41.417969 85.605469 41 84.78125 C 40.582031 83.957031 40.46875 82.800781 41.210938 82.214844 C 41.347656 82.105469 41.546875 82.128906 41.660156 82.269531 C 41.765625 82.40625 41.742188 82.605469 41.605469 82.714844 Z M 60.414062 81.777344 C 60.46875 81.945312 60.378906 82.125 60.210938 82.179688 C 59.894531 82.289062 59.582031 82.339844 59.28125 82.339844 C 58.535156 82.339844 57.871094 82.015625 57.414062 81.410156 C 56.855469 80.671875 56.542969 79.554688 57.167969 78.847656 C 57.285156 78.714844 57.488281 78.703125 57.617188 78.820312 C 57.75 78.9375 57.761719 79.140625 57.644531 79.269531 C 57.234375 79.734375 57.597656 80.59375 57.921875 81.023438 C 58.398438 81.65625 59.160156 81.855469 60.011719 81.574219 C 60.175781 81.519531 60.359375 81.613281 60.414062 81.777344 Z M 76.175781 75.378906 C 75.191406 75.378906 74.382812 74.898438 73.972656 74.046875 C 73.570312 73.214844 73.480469 72.058594 74.234375 71.488281 C 74.375 71.382812 74.574219 71.410156 74.683594 71.546875 C 74.789062 71.6875 74.761719 71.890625 74.621094 71.996094 C 74.125 72.371094 74.3125 73.285156 74.546875 73.769531 C 74.890625 74.484375 75.597656 74.828125 76.492188 74.722656 C 76.664062 74.695312 76.824219 74.824219 76.847656 75 C 76.867188 75.175781 76.742188 75.332031 76.566406 75.355469 C 76.433594 75.371094 76.304688 75.378906 76.175781 75.378906 Z M 172.519531 83.1875 C 173.257812 83.777344 173.144531 84.929688 172.722656 85.753906 C 172.304688 86.578125 171.515625 87.039062 170.558594 87.039062 C 170.410156 87.039062 170.257812 87.027344 170.101562 87.003906 C 169.929688 86.980469 169.808594 86.816406 169.832031 86.640625 C 169.859375 86.46875 170.019531 86.347656 170.195312 86.371094 C 171.078125 86.5 171.796875 86.171875 172.15625 85.464844 C 172.398438 84.984375 172.609375 84.074219 172.121094 83.6875 C 171.984375 83.578125 171.960938 83.378906 172.070312 83.242188 C 172.179688 83.101562 172.382812 83.078125 172.519531 83.1875 Z M 155.242188 81.601562 C 155.566406 81.171875 155.933594 80.316406 155.519531 79.847656 C 155.40625 79.71875 155.417969 79.515625 155.550781 79.398438 C 155.679688 79.28125 155.882812 79.296875 156 79.425781 C 156.625 80.136719 156.308594 81.25 155.75 81.988281 C 155.292969 82.59375 154.628906 82.914062 153.882812 82.914062 C 153.582031 82.914062 153.269531 82.863281 152.949219 82.753906 C 152.785156 82.699219 152.691406 82.519531 152.75 82.351562 C 152.804688 82.183594 152.984375 82.09375 153.152344 82.148438 C 154.003906 82.433594 154.765625 82.234375 155.242188 81.601562 Z M 138.472656 72.078125 C 138.0625 72.925781 137.257812 73.40625 136.273438 73.40625 C 136.144531 73.40625 136.011719 73.398438 135.875 73.378906 C 135.703125 73.359375 135.578125 73.199219 135.597656 73.023438 C 135.621094 72.851562 135.78125 72.726562 135.957031 72.746094 C 136.847656 72.859375 137.550781 72.515625 137.898438 71.800781 C 138.132812 71.316406 138.324219 70.402344 137.828125 70.027344 C 137.6875 69.917969 137.664062 69.71875 137.769531 69.578125 C 137.875 69.4375 138.074219 69.410156 138.214844 69.519531 C 138.96875 70.089844 138.878906 71.246094 138.472656 72.078125 Z M 96.429688 76.433594 C 96.6875 75.960938 96.925781 75.058594 96.449219 74.65625 C 96.316406 74.542969 96.296875 74.34375 96.410156 74.207031 C 96.527344 74.074219 96.726562 74.054688 96.863281 74.167969 C 97.582031 74.78125 97.433594 75.929688 96.988281 76.742188 C 96.558594 77.523438 95.792969 77.960938 94.875 77.960938 C 94.699219 77.960938 94.515625 77.941406 94.332031 77.910156 C 94.15625 77.878906 94.039062 77.714844 94.070312 77.539062 C 94.101562 77.367188 94.269531 77.25 94.441406 77.28125 C 95.324219 77.4375 96.046875 77.128906 96.429688 76.433594 Z M 112.832031 75.070312 C 112.332031 75.441406 112.511719 76.355469 112.742188 76.847656 C 113.082031 77.5625 113.785156 77.914062 114.671875 77.816406 C 114.851562 77.789062 115.007812 77.921875 115.027344 78.097656 C 115.046875 78.269531 114.921875 78.429688 114.746094 78.449219 C 114.621094 78.460938 114.5 78.46875 114.382812 78.46875 C 113.382812 78.46875 112.570312 77.980469 112.164062 77.117188 C 111.773438 76.28125 111.691406 75.125 112.453125 74.558594 C 112.59375 74.453125 112.792969 74.484375 112.898438 74.625 C 113.003906 74.765625 112.972656 74.964844 112.832031 75.070312 Z M 94.402344 135.859375 C 92.460938 135.859375 91.105469 135.035156 91.105469 134.292969 C 91.105469 133.554688 92.460938 132.730469 94.402344 132.730469 C 96.347656 132.730469 97.703125 133.554688 97.703125 134.292969 C 97.703125 135.035156 96.347656 135.859375 94.402344 135.859375 Z M 82.160156 137.71875 C 82.160156 138.460938 80.804688 139.285156 78.859375 139.285156 C 76.914062 139.285156 75.558594 138.460938 75.558594 137.71875 C 75.558594 136.980469 76.914062 136.15625 78.859375 136.15625 C 80.804688 136.15625 82.160156 136.980469 82.160156 137.71875 Z M 98.90625 139.945312 C 98.90625 140.683594 97.550781 141.511719 95.605469 141.511719 C 93.660156 141.511719 92.304688 140.683594 92.304688 139.945312 C 92.304688 139.207031 93.660156 138.378906 95.605469 138.378906 C 97.550781 138.378906 98.90625 139.207031 98.90625 139.945312 Z M 164.679688 137.71875 C 164.679688 138.460938 163.324219 139.285156 161.382812 139.285156 C 159.4375 139.285156 158.082031 138.460938 158.082031 137.71875 C 158.082031 136.980469 159.4375 136.15625 161.382812 136.15625 C 163.324219 136.15625 164.679688 136.980469 164.679688 137.71875 Z M 147.9375 139.945312 C 147.9375 140.683594 146.582031 141.511719 144.636719 141.511719 C 142.691406 141.511719 141.335938 140.683594 141.335938 139.945312 C 141.335938 139.207031 142.691406 138.378906 144.636719 138.378906 C 146.582031 138.378906 147.9375 139.207031 147.9375 139.945312 Z M 106.847656 135.359375 C 106.320312 135.359375 105.890625 134.929688 105.890625 134.402344 L 105.890625 133.1875 C 105.890625 132.65625 106.320312 132.230469 106.847656 132.230469 L 111.53125 132.230469 C 112.058594 132.230469 112.488281 132.65625 112.488281 133.1875 L 112.488281 134.402344 C 112.488281 134.929688 112.058594 135.359375 111.53125 135.359375 Z M 128.28125 136.859375 L 128.28125 138.074219 C 128.28125 138.601562 127.847656 139.03125 127.320312 139.03125 L 122.636719 139.03125 C 122.109375 139.03125 121.679688 138.601562 121.679688 138.074219 L 121.679688 136.859375 C 121.679688 136.332031 122.109375 135.902344 122.636719 135.902344 L 127.320312 135.902344 C 127.847656 135.902344 128.28125 136.332031 128.28125 136.859375 Z M 120.203125 142.765625 C 119.683594 142.765625 119.265625 142.34375 119.265625 141.828125 C 119.265625 141.3125 119.683594 140.890625 120.203125 140.890625 L 122.515625 140.890625 C 123.035156 140.890625 123.457031 141.3125 123.457031 141.828125 C 123.457031 142.34375 123.035156 142.765625 122.515625 142.765625 Z M 142.550781 49.371094 L 107.789062 11.957031 L 187.023438 49.507812 C 180.152344 49.414062 163.136719 49.378906 142.550781 49.371094 Z M 71.121094 49.425781 L 106.386719 11.46875 C 106.40625 11.460938 106.421875 11.453125 106.4375 11.441406 L 141.675781 49.371094 C 119.445312 49.363281 93.207031 49.390625 71.121094 49.425781 Z M 70.246094 49.425781 C 48.035156 49.460938 30.183594 49.496094 25.125 49.507812 L 105.070312 11.945312 Z M 188.453125 61.417969 L 183.34375 61.414062 C 183.207031 59.070312 180.78125 57.195312 177.8125 57.195312 C 174.851562 57.195312 172.425781 59.066406 172.285156 61.40625 L 169.023438 61.402344 C 168.882812 59.0625 166.457031 57.195312 163.496094 57.195312 C 160.539062 57.195312 158.117188 59.058594 157.96875 61.394531 L 154.707031 61.390625 C 154.558594 59.058594 152.136719 57.195312 149.179688 57.195312 C 146.226562 57.195312 143.804688 59.054688 143.652344 61.382812 L 140.390625 61.378906 C 140.234375 59.050781 137.816406 57.195312 134.863281 57.195312 C 131.914062 57.195312 129.496094 59.046875 129.335938 61.371094 L 126.070312 61.367188 C 125.910156 59.046875 123.496094 57.195312 120.546875 57.195312 C 117.601562 57.195312 115.1875 59.039062 115.023438 61.359375 L 111.753906 61.355469 C 111.585938 59.039062 109.171875 57.195312 106.230469 57.195312 C 103.3125 57.195312 100.914062 59.007812 100.714844 61.347656 L 97.4375 61.347656 C 97.261719 59.03125 94.851562 57.195312 91.914062 57.195312 C 88.996094 57.195312 86.597656 59.011719 86.394531 61.335938 L 83.121094 61.335938 C 82.9375 59.027344 80.53125 57.195312 77.597656 57.195312 C 74.679688 57.195312 72.28125 59.011719 72.078125 61.324219 L 68.804688 61.324219 C 68.613281 59.023438 66.210938 57.195312 63.28125 57.195312 C 60.363281 57.195312 57.964844 59.007812 57.761719 61.316406 L 54.488281 61.3125 C 54.289062 59.015625 51.890625 57.195312 48.964844 57.195312 C 46.046875 57.195312 43.648438 59.007812 43.445312 61.304688 L 40.167969 61.300781 C 39.964844 59.011719 37.566406 57.195312 34.648438 57.195312 C 31.734375 57.195312 29.335938 59.003906 29.128906 61.292969 L 24.011719 61.289062 C 24.015625 60.070312 24.035156 55.515625 24.011719 50.148438 C 25.949219 50.144531 36.3125 50.121094 50.996094 50.09375 C 51.050781 50.140625 51.117188 50.171875 51.191406 50.175781 L 51.328125 50.175781 C 51.328125 50.175781 51.332031 50.175781 51.335938 50.175781 C 51.414062 50.175781 51.484375 50.144531 51.542969 50.09375 C 94.972656 50.015625 175.207031 49.914062 188.417969 50.167969 L 188.457031 50.183594 C 188.421875 55.597656 188.445312 60.191406 188.453125 61.417969 Z M 120.996094 166.964844 L 125.3125 166.964844 L 125.3125 185.992188 C 124.628906 186.347656 121.457031 187.742188 113.910156 187.742188 C 106.394531 187.742188 103.195312 186.347656 102.503906 185.992188 L 102.503906 166.964844 L 104.597656 166.964844 L 104.597656 170.296875 C 104.597656 170.472656 104.738281 170.613281 104.914062 170.613281 L 115.1875 170.613281 C 115.363281 170.613281 115.503906 170.472656 115.503906 170.296875 L 115.503906 166.964844 Z M 104.597656 166.324219 L 102.503906 166.324219 L 102.503906 164.226562 L 104.597656 164.226562 Z M 118.15625 164.226562 L 118.15625 166.324219 L 115.503906 166.324219 L 115.503906 164.226562 Z M 121.316406 164.226562 L 125.3125 164.226562 L 125.3125 166.324219 L 121.316406 166.324219 Z M 118.796875 164.226562 L 120.675781 164.226562 L 120.675781 166.324219 L 118.796875 166.324219 Z M 118.796875 164.226562 " fill-opacity="1" fill-rule="nonzero"/><path fill="#fef6e5" d="M 69.25 122.667969 L 68.808594 112.265625 L 70.769531 111.339844 L 70.769531 122.667969 Z M 41.082031 144.367188 C 41.078125 144.367188 41.074219 144.367188 41.070312 144.367188 C 41.019531 144.367188 40.917969 144.472656 40.890625 144.660156 C 40.878906 144.726562 40.878906 144.820312 40.910156 144.921875 C 41.058594 144.714844 41.167969 144.472656 41.082031 144.367188 Z M 36.804688 141.726562 L 47.585938 141.726562 L 47.585938 148.191406 L 36.804688 148.191406 Z M 38.796875 146.15625 C 39.015625 146.222656 39.242188 146.257812 39.472656 146.257812 C 39.957031 146.257812 40.441406 146.113281 40.851562 145.84375 C 40.917969 145.890625 40.988281 145.9375 41.066406 145.976562 C 41.804688 146.375 42.777344 146.226562 43.5 145.621094 C 43.746094 145.910156 44.058594 146.078125 44.398438 146.105469 C 44.886719 146.136719 45.382812 145.882812 45.753906 145.394531 C 45.863281 145.257812 45.835938 145.054688 45.695312 144.949219 C 45.554688 144.839844 45.355469 144.867188 45.246094 145.007812 C 45.011719 145.316406 44.71875 145.480469 44.445312 145.46875 C 44.21875 145.449219 44.046875 145.300781 43.929688 145.136719 C 44.125 144.847656 44.332031 144.441406 44.257812 144.113281 C 44.214844 143.917969 44.082031 143.773438 43.882812 143.703125 C 43.507812 143.578125 43.300781 143.761719 43.230469 143.851562 C 42.976562 144.148438 43.074219 144.714844 43.179688 145.050781 C 42.738281 145.46875 41.992188 145.753906 41.367188 145.414062 C 41.359375 145.410156 41.351562 145.40625 41.34375 145.402344 C 41.671875 145.003906 41.929688 144.410156 41.582031 143.972656 C 41.40625 143.746094 41.148438 143.660156 40.894531 143.730469 C 40.558594 143.828125 40.296875 144.191406 40.25 144.617188 C 40.222656 144.882812 40.28125 145.136719 40.410156 145.367188 C 39.980469 145.617188 39.449219 145.691406 38.984375 145.546875 C 38.816406 145.496094 38.636719 145.589844 38.585938 145.757812 C 38.535156 145.925781 38.628906 146.105469 38.796875 146.15625 Z M 41.410156 110.5625 L 41.410156 107.914062 L 38.570312 107.914062 L 38.570312 122.667969 L 47.910156 122.667969 L 47.910156 110.878906 L 41.730469 110.878906 C 41.554688 110.878906 41.410156 110.738281 41.410156 110.5625 Z M 42.050781 106.191406 L 48.953125 106.191406 L 48.953125 110.242188 L 42.050781 110.242188 Z M 43.222656 109.109375 C 43.378906 109.15625 43.539062 109.179688 43.703125 109.179688 C 44.019531 109.179688 44.335938 109.09375 44.609375 108.929688 C 44.640625 108.949219 44.671875 108.964844 44.703125 108.984375 C 45.203125 109.253906 45.851562 109.171875 46.351562 108.800781 C 46.519531 108.964844 46.722656 109.0625 46.945312 109.078125 C 47.304688 109.105469 47.667969 108.921875 47.9375 108.570312 C 48.042969 108.429688 48.019531 108.230469 47.878906 108.121094 C 47.738281 108.015625 47.539062 108.042969 47.429688 108.179688 C 47.296875 108.355469 47.136719 108.457031 46.996094 108.441406 C 46.90625 108.4375 46.835938 108.386719 46.777344 108.324219 C 46.902344 108.125 47.019531 107.863281 46.96875 107.632812 C 46.929688 107.46875 46.816406 107.339844 46.648438 107.285156 C 46.4375 107.210938 46.230469 107.257812 46.101562 107.414062 C 45.914062 107.632812 45.960938 107.996094 46.027344 108.238281 C 45.785156 108.441406 45.429688 108.578125 45.105469 108.464844 C 45.308594 108.175781 45.421875 107.800781 45.179688 107.496094 C 45.035156 107.3125 44.820312 107.238281 44.609375 107.300781 C 44.34375 107.378906 44.144531 107.652344 44.109375 107.980469 C 44.09375 108.140625 44.117188 108.292969 44.179688 108.4375 C 43.9375 108.550781 43.660156 108.578125 43.414062 108.5 C 43.246094 108.449219 43.066406 108.542969 43.011719 108.710938 C 42.960938 108.878906 43.054688 109.058594 43.222656 109.109375 Z M 56.925781 107.914062 L 56.925781 122.667969 L 66.269531 122.667969 L 66.269531 107.914062 Z M 122.527344 92.265625 L 112.828125 92.265625 L 112.828125 104.503906 L 122.527344 104.503906 Z M 24.003906 198.722656 L 29.113281 198.722656 L 29.113281 75.824219 C 27.378906 75.800781 25.648438 75.621094 24.003906 75.164062 Z M 24.003906 74.503906 C 25.636719 74.976562 27.371094 75.164062 29.113281 75.1875 L 29.113281 61.933594 L 24.003906 61.925781 Z M 40.84375 85.902344 C 40.269531 85.328125 39.953125 84.5625 39.953125 83.746094 C 39.953125 82.605469 40.585938 81.566406 41.605469 81.042969 C 41.710938 80.988281 41.777344 80.878906 41.777344 80.757812 L 41.78125 78.386719 L 44.238281 78.390625 L 44.238281 80.761719 C 44.238281 80.878906 44.304688 80.988281 44.410156 81.042969 C 45.425781 81.574219 46.058594 82.609375 46.054688 83.753906 C 46.054688 85.433594 44.683594 86.796875 43.003906 86.796875 L 43.003906 87.117188 L 43 86.796875 C 42.1875 86.796875 41.421875 86.480469 40.84375 85.902344 Z M 41 84.78125 C 41.417969 85.605469 42.210938 86.066406 43.167969 86.066406 C 43.3125 86.066406 43.464844 86.058594 43.621094 86.035156 C 43.792969 86.011719 43.914062 85.847656 43.890625 85.671875 C 43.863281 85.5 43.703125 85.378906 43.527344 85.402344 C 42.640625 85.53125 41.925781 85.199219 41.570312 84.492188 C 41.324219 84.011719 41.117188 83.101562 41.605469 82.714844 C 41.742188 82.605469 41.765625 82.40625 41.65625 82.269531 C 41.546875 82.128906 41.347656 82.105469 41.210938 82.214844 C 40.46875 82.800781 40.582031 83.957031 41 84.78125 Z M 56.199219 80.574219 C 56 79.453125 56.441406 78.320312 57.351562 77.625 C 57.445312 77.550781 57.492188 77.433594 57.472656 77.316406 L 57.054688 74.980469 L 59.480469 74.550781 L 59.894531 76.882812 C 59.914062 77 60 77.097656 60.113281 77.132812 C 61.207031 77.472656 62.007812 78.382812 62.207031 79.507812 C 62.503906 81.160156 61.394531 82.746094 59.738281 83.042969 C 59.558594 83.074219 59.378906 83.089844 59.199219 83.089844 C 57.71875 83.089844 56.460938 82.03125 56.199219 80.574219 Z M 57.414062 81.410156 C 57.871094 82.019531 58.535156 82.339844 59.28125 82.339844 C 59.582031 82.339844 59.894531 82.289062 60.210938 82.183594 C 60.378906 82.125 60.46875 81.945312 60.414062 81.777344 C 60.359375 81.613281 60.175781 81.519531 60.011719 81.578125 C 59.160156 81.855469 58.398438 81.65625 57.921875 81.027344 C 57.597656 80.59375 57.234375 79.738281 57.648438 79.273438 C 57.761719 79.140625 57.75 78.9375 57.617188 78.820312 C 57.488281 78.707031 57.285156 78.71875 57.167969 78.847656 C 56.542969 79.554688 56.855469 80.671875 57.414062 81.410156 Z M 72.945312 72.992188 C 72.972656 71.847656 73.625 70.828125 74.652344 70.320312 C 74.761719 70.269531 74.828125 70.160156 74.832031 70.039062 L 74.882812 67.671875 L 77.34375 67.722656 L 77.292969 70.09375 C 77.289062 70.210938 77.355469 70.324219 77.460938 70.378906 C 78.464844 70.929688 79.074219 71.980469 79.050781 73.121094 C 79.015625 74.765625 77.648438 76.105469 76 76.105469 L 75.9375 76.105469 C 74.253906 76.070312 72.914062 74.671875 72.945312 72.992188 Z M 73.972656 74.046875 C 74.382812 74.898438 75.191406 75.378906 76.175781 75.378906 C 76.304688 75.378906 76.433594 75.371094 76.566406 75.355469 C 76.742188 75.332031 76.867188 75.171875 76.84375 75 C 76.824219 74.824219 76.664062 74.695312 76.488281 74.722656 C 75.597656 74.828125 74.890625 74.484375 74.546875 73.769531 C 74.3125 73.285156 74.125 72.371094 74.621094 71.996094 C 74.761719 71.890625 74.789062 71.6875 74.683594 71.546875 C 74.574219 71.410156 74.375 71.382812 74.234375 71.488281 C 73.480469 72.058594 73.570312 73.214844 73.972656 74.046875 Z M 167.667969 84.714844 C 167.671875 83.574219 168.304688 82.539062 169.320312 82.011719 C 169.425781 81.957031 169.492188 81.847656 169.492188 81.726562 L 169.496094 79.359375 L 171.957031 79.359375 L 171.953125 81.730469 C 171.953125 81.851562 172.019531 81.960938 172.125 82.015625 C 173.140625 82.542969 173.773438 83.578125 173.773438 84.722656 C 173.769531 86.402344 172.402344 87.769531 170.722656 87.769531 L 170.722656 88.085938 L 170.71875 87.769531 C 169.035156 87.765625 167.667969 86.398438 167.667969 84.714844 Z M 169.832031 86.640625 C 169.808594 86.816406 169.929688 86.980469 170.101562 87.003906 C 170.257812 87.027344 170.410156 87.039062 170.558594 87.039062 C 171.515625 87.039062 172.304688 86.578125 172.722656 85.753906 C 173.144531 84.929688 173.257812 83.777344 172.519531 83.1875 C 172.382812 83.078125 172.179688 83.101562 172.070312 83.242188 C 171.960938 83.378906 171.984375 83.578125 172.121094 83.6875 C 172.609375 84.074219 172.402344 84.984375 172.15625 85.464844 C 171.796875 86.171875 171.078125 86.5 170.195312 86.375 C 170.019531 86.347656 169.859375 86.46875 169.832031 86.640625 Z M 150.957031 80.074219 C 151.160156 78.953125 151.964844 78.042969 153.058594 77.707031 C 153.175781 77.667969 153.257812 77.574219 153.28125 77.457031 L 153.699219 75.125 L 156.117188 75.558594 L 155.699219 77.890625 C 155.679688 78.011719 155.726562 78.128906 155.820312 78.203125 C 156.726562 78.902344 157.164062 80.03125 156.964844 81.15625 C 156.703125 82.609375 155.441406 83.664062 153.96875 83.664062 C 153.785156 83.664062 153.601562 83.648438 153.421875 83.617188 C 151.769531 83.316406 150.660156 81.730469 150.957031 80.074219 Z M 152.949219 82.753906 C 153.269531 82.863281 153.582031 82.914062 153.882812 82.914062 C 154.628906 82.914062 155.292969 82.59375 155.75 81.988281 C 156.308594 81.25 156.625 80.136719 156 79.425781 C 155.882812 79.296875 155.679688 79.28125 155.550781 79.398438 C 155.417969 79.515625 155.40625 79.71875 155.523438 79.847656 C 155.933594 80.316406 155.570312 81.171875 155.242188 81.601562 C 154.765625 82.234375 154.003906 82.433594 153.152344 82.148438 C 152.984375 82.09375 152.804688 82.183594 152.75 82.351562 C 152.691406 82.519531 152.785156 82.699219 152.949219 82.753906 Z M 133.398438 71.140625 C 133.375 70 133.988281 68.953125 134.996094 68.40625 C 135.097656 68.347656 135.164062 68.238281 135.160156 68.117188 L 135.117188 65.746094 L 137.578125 65.699219 L 137.621094 68.070312 C 137.625 68.191406 137.695312 68.296875 137.800781 68.351562 C 138.828125 68.859375 139.480469 69.882812 139.5 71.023438 C 139.53125 72.703125 138.191406 74.097656 136.507812 74.132812 L 136.449219 74.132812 C 134.796875 74.132812 133.429688 72.792969 133.398438 71.140625 Z M 135.597656 73.023438 C 135.578125 73.199219 135.703125 73.359375 135.875 73.378906 C 136.011719 73.398438 136.144531 73.40625 136.273438 73.40625 C 137.257812 73.40625 138.0625 72.925781 138.472656 72.078125 C 138.875 71.246094 138.96875 70.089844 138.214844 69.515625 C 138.074219 69.410156 137.875 69.4375 137.769531 69.578125 C 137.660156 69.71875 137.6875 69.917969 137.828125 70.023438 C 138.324219 70.402344 138.132812 71.3125 137.898438 71.800781 C 137.550781 72.511719 136.84375 72.859375 135.953125 72.746094 C 135.78125 72.726562 135.621094 72.851562 135.597656 73.023438 Z M 91.96875 75.550781 C 92.003906 74.410156 92.667969 73.390625 93.703125 72.894531 C 93.808594 72.84375 93.878906 72.738281 93.882812 72.617188 L 93.957031 70.25 L 96.414062 70.324219 L 96.339844 72.695312 C 96.335938 72.8125 96.402344 72.925781 96.503906 72.984375 C 97.503906 73.542969 98.105469 74.597656 98.070312 75.738281 C 98.019531 77.394531 96.679688 78.695312 95.023438 78.695312 L 94.925781 78.691406 C 93.242188 78.640625 91.917969 77.230469 91.96875 75.550781 Z M 94.070312 77.539062 C 94.042969 77.714844 94.15625 77.878906 94.332031 77.910156 C 94.515625 77.941406 94.699219 77.957031 94.875 77.957031 C 95.792969 77.957031 96.558594 77.523438 96.988281 76.742188 C 97.433594 75.929688 97.582031 74.78125 96.863281 74.167969 C 96.726562 74.054688 96.527344 74.074219 96.414062 74.207031 C 96.296875 74.34375 96.316406 74.542969 96.449219 74.65625 C 96.925781 75.058594 96.6875 75.960938 96.429688 76.433594 C 96.050781 77.128906 95.324219 77.4375 94.441406 77.28125 C 94.269531 77.25 94.101562 77.367188 94.070312 77.539062 Z M 111.148438 76.050781 C 111.183594 74.910156 111.847656 73.890625 112.882812 73.398438 C 112.988281 73.347656 113.058594 73.238281 113.0625 73.121094 L 113.136719 70.75 L 115.597656 70.824219 L 115.523438 73.195312 C 115.519531 73.3125 115.582031 73.425781 115.683594 73.484375 C 116.683594 74.042969 117.285156 75.097656 117.25 76.242188 C 117.199219 77.898438 115.859375 79.195312 114.199219 79.195312 L 114.105469 79.191406 C 112.421875 79.140625 111.097656 77.730469 111.148438 76.050781 Z M 112.164062 77.117188 C 112.570312 77.980469 113.382812 78.46875 114.382812 78.46875 C 114.5 78.46875 114.621094 78.460938 114.746094 78.449219 C 114.921875 78.429688 115.046875 78.269531 115.023438 78.097656 C 115.003906 77.921875 114.851562 77.789062 114.671875 77.816406 C 113.785156 77.914062 113.078125 77.5625 112.742188 76.847656 C 112.511719 76.355469 112.332031 75.441406 112.832031 75.070312 C 112.972656 74.964844 113.003906 74.765625 112.898438 74.625 C 112.792969 74.484375 112.59375 74.453125 112.449219 74.558594 C 111.691406 75.125 111.769531 76.28125 112.164062 77.117188 Z M 112.855469 143.34375 C 112.328125 143.421875 112.109375 143.78125 112.015625 144.0625 L 113.925781 144.0625 C 113.773438 143.675781 113.449219 143.261719 112.855469 143.34375 Z M 150.738281 143.34375 C 150.210938 143.421875 149.992188 143.78125 149.898438 144.0625 L 151.808594 144.0625 C 151.65625 143.675781 151.328125 143.261719 150.738281 143.34375 Z M 74.972656 143.34375 C 74.445312 143.421875 74.226562 143.78125 74.132812 144.0625 L 76.042969 144.0625 C 75.890625 143.675781 75.566406 143.261719 74.972656 143.34375 Z M 171.871094 130.875 L 182.367188 144.058594 L 152.472656 144.058594 C 152.246094 143.257812 151.589844 142.585938 150.648438 142.714844 C 149.738281 142.84375 149.359375 143.539062 149.242188 144.058594 L 114.589844 144.058594 C 114.363281 143.257812 113.707031 142.585938 112.765625 142.714844 C 111.859375 142.84375 111.476562 143.539062 111.359375 144.058594 L 76.707031 144.058594 C 76.484375 143.257812 75.828125 142.585938 74.882812 142.714844 C 73.976562 142.84375 73.59375 143.539062 73.476562 144.058594 L 55.910156 144.058594 L 66.179688 130.875 L 77.039062 130.875 L 76.832031 134.277344 C 76.828125 134.363281 76.859375 134.449219 76.917969 134.511719 C 76.980469 134.578125 77.0625 134.613281 77.152344 134.613281 L 88.175781 134.613281 C 88.34375 134.613281 88.484375 134.484375 88.492188 134.3125 L 88.589844 132.746094 L 90.121094 132.746094 C 90.210938 132.746094 90.296875 132.707031 90.359375 132.636719 C 90.417969 132.570312 90.449219 132.480469 90.4375 132.390625 L 90.269531 130.875 L 114.628906 130.875 L 114.421875 134.277344 C 114.417969 134.363281 114.449219 134.449219 114.507812 134.515625 C 114.570312 134.578125 114.652344 134.613281 114.742188 134.613281 L 125.765625 134.613281 C 125.933594 134.613281 126.070312 134.484375 126.082031 134.316406 L 126.175781 132.746094 L 127.710938 132.746094 C 127.800781 132.746094 127.886719 132.707031 127.949219 132.640625 C 128.007812 132.570312 128.039062 132.480469 128.027344 132.390625 L 127.859375 130.875 L 150.410156 130.875 L 150.242188 132.390625 C 150.230469 132.480469 150.261719 132.570312 150.320312 132.640625 C 150.378906 132.707031 150.46875 132.746094 150.558594 132.746094 L 152.089844 132.746094 L 152.1875 134.316406 C 152.195312 134.484375 152.335938 134.613281 152.503906 134.613281 L 163.527344 134.613281 C 163.617188 134.613281 163.699219 134.578125 163.761719 134.515625 C 163.820312 134.449219 163.851562 134.363281 163.847656 134.277344 L 163.640625 130.875 Z M 141.898438 134.292969 C 141.898438 135.53125 143.628906 136.496094 145.835938 136.496094 C 148.046875 136.496094 149.777344 135.53125 149.777344 134.292969 C 149.777344 133.058594 148.046875 132.09375 145.835938 132.09375 C 143.628906 132.09375 141.898438 133.058594 141.898438 134.292969 Z M 90.464844 134.292969 C 90.464844 135.53125 92.195312 136.496094 94.402344 136.496094 C 96.613281 136.496094 98.34375 135.53125 98.34375 134.292969 C 98.34375 133.058594 96.613281 132.09375 94.402344 132.09375 C 92.195312 132.09375 90.464844 133.058594 90.464844 134.292969 Z M 73.65625 139.605469 C 73.65625 138.367188 71.925781 137.402344 69.714844 137.402344 C 67.507812 137.402344 65.777344 138.367188 65.777344 139.605469 C 65.777344 140.839844 67.507812 141.804688 69.714844 141.804688 C 71.925781 141.804688 73.65625 140.839844 73.65625 139.605469 Z M 75.828125 133.792969 C 75.828125 132.558594 74.097656 131.589844 71.886719 131.589844 C 69.679688 131.589844 67.949219 132.558594 67.949219 133.792969 C 67.949219 135.027344 69.679688 135.996094 71.886719 135.996094 C 74.097656 135.996094 75.828125 135.027344 75.828125 133.792969 Z M 78.859375 139.921875 C 81.066406 139.921875 82.796875 138.953125 82.796875 137.71875 C 82.796875 136.484375 81.066406 135.515625 78.859375 135.515625 C 76.652344 135.515625 74.921875 136.484375 74.921875 137.71875 C 74.921875 138.953125 76.652344 139.921875 78.859375 139.921875 Z M 85.476562 141.296875 C 85.476562 140.410156 84.273438 139.71875 82.742188 139.71875 C 81.207031 139.71875 80.007812 140.410156 80.007812 141.296875 C 80.007812 142.179688 81.207031 142.871094 82.742188 142.871094 C 84.273438 142.871094 85.476562 142.179688 85.476562 141.296875 Z M 91.617188 137.46875 C 91.617188 136.230469 89.886719 135.265625 87.675781 135.265625 C 85.46875 135.265625 83.738281 136.230469 83.738281 137.46875 C 83.738281 138.703125 85.46875 139.667969 87.675781 139.667969 C 89.886719 139.667969 91.617188 138.703125 91.617188 137.46875 Z M 99.542969 139.945312 C 99.542969 138.710938 97.8125 137.742188 95.605469 137.742188 C 93.394531 137.742188 91.664062 138.710938 91.664062 139.945312 C 91.664062 141.179688 93.394531 142.148438 95.605469 142.148438 C 97.8125 142.148438 99.542969 141.179688 99.542969 139.945312 Z M 110.957031 138.996094 C 110.957031 138.117188 110.242188 137.402344 109.359375 137.402344 L 104.675781 137.402344 C 103.796875 137.402344 103.078125 138.117188 103.078125 138.996094 L 103.078125 140.210938 C 103.078125 141.089844 103.796875 141.804688 104.675781 141.804688 L 109.359375 141.804688 C 110.242188 141.804688 110.957031 141.089844 110.957031 140.210938 Z M 113.128906 134.402344 L 113.128906 133.183594 C 113.128906 132.304688 112.414062 131.589844 111.53125 131.589844 L 106.847656 131.589844 C 105.96875 131.589844 105.25 132.304688 105.25 133.183594 L 105.25 134.402344 C 105.25 135.28125 105.96875 135.996094 106.847656 135.996094 L 111.53125 135.996094 C 112.414062 135.996094 113.128906 135.28125 113.128906 134.402344 Z M 118.503906 139.921875 C 119.386719 139.921875 120.101562 139.207031 120.101562 138.328125 L 120.101562 137.113281 C 120.101562 136.230469 119.386719 135.515625 118.503906 135.515625 L 113.820312 135.515625 C 112.941406 135.515625 112.222656 136.230469 112.222656 137.113281 L 112.222656 138.328125 C 112.222656 139.207031 112.941406 139.921875 113.820312 139.921875 Z M 124.09375 141.828125 C 124.09375 140.957031 123.386719 140.253906 122.515625 140.253906 L 120.203125 140.253906 C 119.519531 140.253906 118.9375 140.6875 118.71875 141.292969 C 118.660156 141.351562 118.625 141.433594 118.625 141.519531 L 118.625 141.828125 C 118.625 142.695312 119.332031 143.402344 120.203125 143.402344 L 122.515625 143.402344 C 123.386719 143.402344 124.09375 142.695312 124.09375 141.828125 Z M 128.917969 136.859375 C 128.917969 135.980469 128.203125 135.265625 127.320312 135.265625 L 122.636719 135.265625 C 121.757812 135.265625 121.039062 135.980469 121.039062 136.859375 L 121.039062 138.074219 C 121.039062 138.953125 121.757812 139.667969 122.636719 139.667969 L 127.320312 139.667969 C 128.203125 139.667969 128.917969 138.953125 128.917969 138.074219 Z M 136.847656 139.335938 C 136.847656 138.457031 136.128906 137.742188 135.25 137.742188 L 130.566406 137.742188 C 129.683594 137.742188 128.96875 138.457031 128.96875 139.335938 L 128.96875 140.550781 C 128.96875 141.429688 129.683594 142.148438 130.566406 142.148438 L 135.25 142.148438 C 136.128906 142.148438 136.84375 141.433594 136.847656 140.550781 Z M 137.371094 133.6875 C 137.371094 132.808594 136.65625 132.089844 135.773438 132.089844 L 131.089844 132.089844 C 130.210938 132.089844 129.492188 132.808594 129.492188 133.6875 L 129.492188 134.902344 C 129.492188 135.78125 130.210938 136.496094 131.089844 136.496094 L 135.773438 136.496094 C 136.65625 136.496094 137.371094 135.78125 137.371094 134.902344 Z M 148.574219 139.945312 C 148.574219 138.710938 146.84375 137.742188 144.636719 137.742188 C 142.425781 137.742188 140.699219 138.710938 140.699219 139.945312 C 140.699219 141.179688 142.425781 142.148438 144.636719 142.148438 C 146.84375 142.148438 148.574219 141.179688 148.574219 139.945312 Z M 152.5625 139.667969 C 154.773438 139.667969 156.503906 138.703125 156.503906 137.46875 C 156.503906 136.230469 154.773438 135.265625 152.5625 135.265625 C 150.355469 135.265625 148.625 136.230469 148.625 137.46875 C 148.625 138.703125 150.355469 139.667969 152.5625 139.667969 Z M 160.234375 141.296875 C 160.234375 140.410156 159.035156 139.71875 157.5 139.71875 C 155.96875 139.71875 154.765625 140.410156 154.765625 141.296875 C 154.765625 142.179688 155.96875 142.871094 157.5 142.871094 C 159.035156 142.871094 160.234375 142.179688 160.234375 141.296875 Z M 165.320312 137.71875 C 165.320312 136.484375 163.589844 135.515625 161.382812 135.515625 C 159.171875 135.515625 157.441406 136.484375 157.441406 137.71875 C 157.441406 138.953125 159.171875 139.921875 161.382812 139.921875 C 163.589844 139.921875 165.320312 138.953125 165.320312 137.71875 Z M 170.523438 137.402344 C 168.316406 137.402344 166.585938 138.367188 166.585938 139.605469 C 166.585938 140.839844 168.316406 141.804688 170.523438 141.804688 C 172.734375 141.804688 174.464844 140.839844 174.464844 139.605469 C 174.464844 138.367188 172.734375 137.402344 170.523438 137.402344 Z M 172.292969 133.792969 C 172.292969 132.558594 170.5625 131.589844 168.355469 131.589844 C 166.144531 131.589844 164.414062 132.558594 164.414062 133.792969 C 164.414062 135.027344 166.144531 135.996094 168.355469 135.996094 C 170.5625 135.996094 172.292969 135.027344 172.292969 133.792969 Z M 89.027344 125.480469 L 88.625 132.105469 L 89.761719 132.105469 Z M 78.351562 122.808594 L 88.546875 122.808594 L 87.875 133.976562 L 77.492188 133.976562 L 78.164062 122.808594 Z M 85.710938 129.726562 C 85.710938 129.550781 85.566406 129.410156 85.390625 129.410156 C 84.523438 129.410156 83.65625 129.429688 82.789062 129.449219 C 81.886719 129.46875 80.988281 129.492188 80.089844 129.492188 C 79.910156 129.492188 79.769531 129.632812 79.769531 129.808594 C 79.769531 129.984375 79.910156 130.128906 80.089844 130.128906 C 80.992188 130.128906 81.898438 130.109375 82.800781 130.089844 C 83.667969 130.070312 84.53125 130.050781 85.390625 130.046875 C 85.570312 130.046875 85.710938 129.902344 85.710938 129.726562 Z M 79.3125 127.183594 C 79.6875 127.480469 80.171875 127.628906 80.65625 127.628906 C 81.085938 127.628906 81.507812 127.511719 81.847656 127.269531 C 81.882812 127.246094 81.917969 127.21875 81.949219 127.191406 C 82.71875 127.628906 83.734375 127.6875 84.65625 127.304688 C 84.761719 127.257812 84.878906 127.191406 84.992188 127.105469 C 85.292969 127.414062 85.65625 127.570312 86.011719 127.582031 C 86.1875 127.582031 86.328125 127.4375 86.328125 127.261719 C 86.324219 127.085938 86.183594 126.945312 86.007812 126.945312 C 86.007812 126.945312 86.003906 126.945312 86.003906 126.945312 C 85.828125 126.957031 85.613281 126.835938 85.433594 126.640625 C 85.515625 126.523438 85.578125 126.394531 85.617188 126.261719 C 85.699219 125.980469 85.65625 125.714844 85.5 125.488281 C 85.28125 125.179688 85.03125 125.203125 84.933594 125.230469 C 84.703125 125.292969 84.539062 125.539062 84.507812 125.871094 C 84.484375 126.097656 84.53125 126.339844 84.632812 126.574219 C 84.554688 126.636719 84.472656 126.6875 84.40625 126.714844 C 83.796875 126.96875 82.984375 127.003906 82.34375 126.679688 C 82.503906 126.328125 82.515625 125.910156 82.367188 125.472656 C 82.277344 125.222656 82.058594 124.890625 81.726562 124.789062 C 81.507812 124.722656 81.28125 124.765625 81.085938 124.910156 C 80.910156 125.042969 80.804688 125.230469 80.78125 125.445312 C 80.730469 125.945312 81.144531 126.476562 81.324219 126.683594 C 81.355469 126.71875 81.386719 126.753906 81.421875 126.789062 C 80.925781 127.09375 80.175781 127.050781 79.710938 126.683594 C 79.570312 126.574219 79.371094 126.597656 79.261719 126.738281 C 79.152344 126.875 79.175781 127.074219 79.3125 127.183594 Z M 81.8125 126.273438 C 81.855469 126.097656 81.835938 125.898438 81.761719 125.679688 C 81.714844 125.539062 81.605469 125.421875 81.539062 125.398438 C 81.535156 125.398438 81.53125 125.394531 81.523438 125.394531 C 81.511719 125.394531 81.496094 125.402344 81.472656 125.421875 C 81.429688 125.449219 81.421875 125.476562 81.417969 125.511719 C 81.398438 125.675781 81.558594 125.984375 81.804688 126.261719 C 81.808594 126.265625 81.808594 126.269531 81.8125 126.273438 Z M 127.351562 132.105469 L 126.617188 125.476562 L 126.214844 132.105469 Z M 125.460938 133.976562 L 115.078125 133.976562 L 115.753906 122.808594 L 126.136719 122.808594 Z M 123.300781 129.726562 C 123.300781 129.550781 123.15625 129.410156 122.980469 129.410156 C 122.113281 129.410156 121.246094 129.429688 120.375 129.449219 C 119.476562 129.46875 118.578125 129.492188 117.675781 129.492188 C 117.5 129.492188 117.359375 129.632812 117.359375 129.808594 C 117.359375 129.984375 117.5 130.128906 117.675781 130.128906 C 118.582031 130.128906 119.488281 130.109375 120.390625 130.089844 C 121.253906 130.070312 122.117188 130.050781 122.980469 130.046875 C 123.15625 130.046875 123.300781 129.902344 123.300781 129.726562 Z M 123.917969 127.257812 C 123.914062 127.085938 123.769531 126.945312 123.597656 126.945312 C 123.597656 126.945312 123.59375 126.945312 123.59375 126.945312 C 123.410156 126.957031 123.203125 126.835938 123.023438 126.640625 C 123.105469 126.523438 123.167969 126.394531 123.207031 126.261719 C 123.289062 125.980469 123.246094 125.714844 123.089844 125.488281 C 122.871094 125.175781 122.621094 125.203125 122.523438 125.230469 C 122.292969 125.292969 122.125 125.535156 122.09375 125.871094 C 122.074219 126.097656 122.121094 126.339844 122.222656 126.574219 C 122.144531 126.636719 122.0625 126.6875 121.996094 126.714844 C 121.386719 126.96875 120.574219 127 119.933594 126.675781 C 120.09375 126.324219 120.105469 125.90625 119.953125 125.472656 C 119.867188 125.222656 119.648438 124.890625 119.3125 124.789062 C 119.097656 124.71875 118.871094 124.765625 118.675781 124.910156 C 118.5 125.042969 118.390625 125.230469 118.371094 125.445312 C 118.320312 125.945312 118.734375 126.476562 118.914062 126.683594 C 118.945312 126.71875 118.976562 126.753906 119.011719 126.785156 C 118.515625 127.09375 117.765625 127.050781 117.300781 126.683594 C 117.160156 126.574219 116.960938 126.597656 116.851562 126.734375 C 116.742188 126.875 116.765625 127.074219 116.902344 127.183594 C 117.273438 127.476562 117.761719 127.628906 118.242188 127.628906 C 118.671875 127.628906 119.097656 127.507812 119.433594 127.269531 C 119.472656 127.246094 119.507812 127.21875 119.539062 127.191406 C 120.304688 127.628906 121.324219 127.6875 122.242188 127.304688 C 122.351562 127.257812 122.46875 127.1875 122.582031 127.101562 C 122.878906 127.414062 123.238281 127.570312 123.601562 127.582031 C 123.777344 127.582031 123.917969 127.4375 123.917969 127.257812 Z M 119.128906 125.398438 C 119.125 125.398438 119.121094 125.394531 119.113281 125.394531 C 119.101562 125.394531 119.085938 125.402344 119.0625 125.421875 C 119.019531 125.449219 119.011719 125.476562 119.007812 125.511719 C 118.988281 125.675781 119.148438 125.984375 119.394531 126.261719 C 119.398438 126.265625 119.398438 126.269531 119.402344 126.273438 C 119.441406 126.097656 119.425781 125.898438 119.351562 125.679688 C 119.304688 125.539062 119.195312 125.417969 119.128906 125.398438 Z M 150.914062 132.105469 L 152.050781 132.105469 L 151.652344 125.476562 Z M 152.128906 122.808594 L 162.511719 122.808594 L 163.1875 133.976562 L 152.804688 133.976562 Z M 160.910156 129.808594 C 160.910156 129.632812 160.765625 129.492188 160.589844 129.492188 C 159.691406 129.492188 158.789062 129.46875 157.890625 129.449219 C 157.019531 129.429688 156.152344 129.410156 155.285156 129.410156 C 155.109375 129.410156 154.964844 129.550781 154.964844 129.726562 C 154.964844 129.90625 155.109375 130.046875 155.285156 130.046875 C 156.148438 130.050781 157.011719 130.070312 157.875 130.089844 C 158.777344 130.109375 159.683594 130.128906 160.589844 130.128906 C 160.765625 130.128906 160.910156 129.988281 160.910156 129.808594 Z M 154.351562 127.261719 C 154.347656 127.4375 154.488281 127.582031 154.664062 127.582031 C 155.011719 127.570312 155.386719 127.414062 155.683594 127.105469 C 155.796875 127.191406 155.914062 127.257812 156.023438 127.304688 C 156.941406 127.6875 157.957031 127.628906 158.726562 127.191406 C 158.757812 127.21875 158.792969 127.246094 158.828125 127.269531 C 159.167969 127.507812 159.59375 127.628906 160.023438 127.628906 C 160.503906 127.628906 160.992188 127.476562 161.363281 127.183594 C 161.5 127.074219 161.523438 126.875 161.414062 126.734375 C 161.308594 126.597656 161.105469 126.574219 160.96875 126.683594 C 160.5 127.050781 159.75 127.09375 159.253906 126.785156 C 159.289062 126.753906 159.320312 126.71875 159.351562 126.683594 C 159.535156 126.476562 159.945312 125.945312 159.894531 125.445312 C 159.871094 125.230469 159.765625 125.042969 159.589844 124.910156 C 159.394531 124.765625 159.167969 124.722656 158.953125 124.789062 C 158.617188 124.890625 158.398438 125.222656 158.3125 125.472656 C 158.160156 125.910156 158.171875 126.328125 158.332031 126.679688 C 157.691406 127.003906 156.878906 126.96875 156.269531 126.714844 C 156.203125 126.6875 156.121094 126.636719 156.042969 126.574219 C 156.144531 126.339844 156.191406 126.097656 156.171875 125.871094 C 156.140625 125.539062 155.972656 125.292969 155.742188 125.230469 C 155.644531 125.203125 155.394531 125.179688 155.175781 125.488281 C 155.019531 125.714844 154.976562 125.980469 155.058594 126.261719 C 155.097656 126.394531 155.160156 126.523438 155.242188 126.640625 L 155.238281 126.640625 C 155.066406 126.832031 154.855469 126.945312 154.679688 126.945312 C 154.675781 126.945312 154.671875 126.945312 154.667969 126.945312 C 154.496094 126.945312 154.351562 127.085938 154.351562 127.261719 Z M 158.875 126.261719 C 159.117188 125.984375 159.277344 125.675781 159.261719 125.511719 C 159.257812 125.476562 159.246094 125.453125 159.207031 125.421875 C 159.179688 125.402344 159.164062 125.398438 159.152344 125.398438 C 159.148438 125.398438 159.144531 125.398438 159.140625 125.398438 C 159.070312 125.421875 158.964844 125.539062 158.914062 125.679688 C 158.839844 125.898438 158.824219 126.097656 158.863281 126.273438 C 158.867188 126.269531 158.871094 126.265625 158.875 126.261719 Z M 157.5 140.359375 C 156.300781 140.359375 155.40625 140.851562 155.40625 141.292969 C 155.40625 141.738281 156.300781 142.230469 157.5 142.230469 C 158.699219 142.230469 159.597656 141.738281 159.597656 141.292969 C 159.597656 140.851562 158.699219 140.359375 157.5 140.359375 Z M 135.773438 132.730469 L 131.089844 132.730469 C 130.5625 132.730469 130.132812 133.160156 130.132812 133.6875 L 130.132812 134.902344 C 130.132812 135.429688 130.5625 135.859375 131.089844 135.859375 L 135.773438 135.859375 C 136.304688 135.859375 136.734375 135.429688 136.734375 134.902344 L 136.734375 133.6875 C 136.734375 133.160156 136.304688 132.730469 135.773438 132.730469 Z M 183.347656 62.050781 L 183.347656 198.722656 L 188.457031 198.722656 L 188.457031 62.054688 Z M 83.433594 166.324219 L 87.429688 166.324219 L 87.429688 164.226562 L 83.433594 164.226562 Z M 81.859375 164.226562 L 80.914062 164.226562 L 80.914062 166.324219 L 82.792969 166.324219 L 82.792969 164.226562 Z M 69.160156 164.226562 L 68.21875 164.226562 L 68.21875 166.324219 L 70.101562 166.324219 L 70.101562 164.226562 Z M 64.621094 164.226562 L 64.621094 166.324219 L 67.582031 166.324219 L 67.582031 164.226562 Z M 80.59375 166.964844 L 64.621094 166.964844 L 64.621094 185.992188 C 65.3125 186.34375 68.511719 187.742188 76.027344 187.742188 C 83.574219 187.742188 86.746094 186.347656 87.429688 185.992188 L 87.429688 166.964844 Z M 70.738281 166.324219 L 80.273438 166.324219 L 80.273438 164.226562 L 70.738281 164.226562 Z M 144.925781 164.226562 L 143.984375 164.226562 L 143.984375 166.324219 L 145.863281 166.324219 L 145.863281 164.226562 Z M 140.386719 164.226562 L 140.386719 166.324219 L 143.34375 166.324219 L 143.34375 164.226562 Z M 157.625 164.226562 L 156.675781 164.226562 L 156.675781 166.324219 L 158.558594 166.324219 L 158.558594 164.226562 Z M 156.359375 166.964844 L 140.386719 166.964844 L 140.386719 185.992188 C 141.074219 186.34375 144.277344 187.742188 151.789062 187.742188 C 159.339844 187.742188 162.511719 186.347656 163.195312 185.992188 L 163.195312 166.964844 Z M 159.199219 166.324219 L 163.195312 166.324219 L 163.195312 164.226562 L 159.199219 164.226562 Z M 146.503906 166.324219 L 156.039062 166.324219 L 156.039062 164.226562 L 146.503906 164.226562 Z M 107.042969 164.226562 L 114.867188 164.226562 L 114.867188 169.976562 L 105.234375 169.976562 L 105.234375 164.226562 Z M 106.773438 167.808594 C 106.71875 167.976562 106.8125 168.15625 106.984375 168.207031 C 107.183594 168.269531 107.390625 168.300781 107.601562 168.300781 C 108.035156 168.300781 108.472656 168.171875 108.839844 167.933594 C 108.894531 167.972656 108.953125 168.011719 109.019531 168.046875 C 109.6875 168.40625 110.5625 168.273438 111.21875 167.738281 C 111.445312 167.992188 111.722656 168.136719 112.027344 168.160156 C 112.476562 168.1875 112.933594 167.960938 113.277344 167.511719 C 113.382812 167.371094 113.359375 167.171875 113.21875 167.066406 C 113.078125 166.957031 112.878906 166.984375 112.769531 167.125 C 112.5625 167.390625 112.300781 167.539062 112.078125 167.523438 C 111.890625 167.511719 111.75 167.390625 111.648438 167.257812 C 111.824219 166.996094 112.003906 166.628906 111.9375 166.332031 C 111.894531 166.144531 111.765625 166.003906 111.578125 165.941406 C 111.226562 165.824219 111.023438 166 110.957031 166.082031 C 110.726562 166.355469 110.804688 166.859375 110.902344 167.171875 C 110.511719 167.527344 109.875 167.769531 109.335938 167.488281 C 109.625 167.121094 109.839844 166.589844 109.523438 166.191406 C 109.355469 165.980469 109.113281 165.894531 108.871094 165.964844 C 108.558594 166.054688 108.3125 166.394531 108.269531 166.789062 C 108.246094 167.023438 108.292969 167.25 108.402344 167.457031 C 108.027344 167.664062 107.574219 167.722656 107.171875 167.597656 C 107.003906 167.546875 106.824219 167.640625 106.773438 167.808594 Z M 109.023438 166.589844 C 109.011719 166.589844 108.917969 166.695312 108.902344 166.867188 C 108.898438 166.910156 108.902344 166.949219 108.90625 166.988281 C 109.015625 166.824219 109.078125 166.65625 109.023438 166.589844 Z M 125.351562 83.390625 C 125.300781 83.390625 125.199219 83.496094 125.171875 83.683594 C 125.160156 83.75 125.15625 83.84375 125.1875 83.945312 C 125.339844 83.738281 125.445312 83.496094 125.363281 83.390625 C 125.359375 83.390625 125.355469 83.390625 125.351562 83.390625 Z M 131.867188 87.214844 L 121.085938 87.214844 L 121.085938 80.75 L 131.867188 80.75 Z M 129.976562 83.972656 C 129.835938 83.863281 129.636719 83.890625 129.527344 84.03125 C 129.292969 84.335938 128.988281 84.511719 128.726562 84.488281 C 128.5 84.472656 128.328125 84.320312 128.210938 84.160156 C 128.40625 83.871094 128.613281 83.464844 128.539062 83.132812 C 128.496094 82.9375 128.363281 82.792969 128.164062 82.730469 C 127.792969 82.601562 127.582031 82.785156 127.511719 82.871094 C 127.257812 83.171875 127.355469 83.738281 127.460938 84.074219 C 127.019531 84.492188 126.277344 84.777344 125.648438 84.4375 C 125.640625 84.433594 125.632812 84.429688 125.625 84.425781 C 125.953125 84.023438 126.210938 83.433594 125.863281 82.996094 C 125.683594 82.769531 125.429688 82.679688 125.175781 82.753906 C 124.839844 82.851562 124.578125 83.214844 124.53125 83.640625 C 124.503906 83.90625 124.558594 84.160156 124.691406 84.390625 C 124.261719 84.640625 123.730469 84.710938 123.265625 84.570312 C 123.097656 84.519531 122.917969 84.613281 122.867188 84.78125 C 122.8125 84.949219 122.90625 85.128906 123.078125 85.179688 C 123.296875 85.246094 123.523438 85.28125 123.753906 85.28125 C 124.238281 85.28125 124.722656 85.136719 125.132812 84.867188 C 125.199219 84.914062 125.269531 84.960938 125.347656 85 C 126.085938 85.398438 127.058594 85.25 127.78125 84.644531 C 128.027344 84.933594 128.339844 85.101562 128.679688 85.125 C 129.164062 85.164062 129.664062 84.90625 130.035156 84.417969 C 130.144531 84.277344 130.117188 84.078125 129.976562 83.972656 Z M 129.976562 83.972656 " fill-opacity="1" fill-rule="nonzero"/><path fill="#498acb" d="M 76.101562 109.960938 L 72.261719 111.78125 C 72.144531 111.835938 72.074219 111.953125 72.082031 112.082031 L 72.847656 130.234375 L 69.570312 130.234375 L 69.25 122.667969 L 70.769531 122.667969 L 70.769531 111.339844 L 72.703125 110.421875 C 72.84375 110.355469 72.917969 110.195312 72.875 110.046875 C 72.855469 109.972656 70.4375 102.367188 68.921875 101.183594 C 68.808594 101.09375 68.679688 101 68.550781 100.910156 C 68.757812 100.410156 68.863281 99.933594 68.921875 99.597656 C 69.703125 99.992188 71.441406 100.902344 72.445312 101.6875 C 73.5625 102.558594 75.628906 108.457031 76.101562 109.960938 Z M 59.316406 101.136719 C 59.726562 101.84375 60.417969 102.480469 61.589844 102.546875 C 62.21875 102.511719 62.707031 102.304688 63.085938 102.007812 C 62.414062 101.203125 62.15625 100.183594 62.058594 99.597656 C 61.457031 99.902344 60.28125 100.511719 59.316406 101.136719 Z M 47.941406 153.640625 L 36.449219 153.640625 C 35.964844 153.640625 35.566406 154.035156 35.566406 154.523438 C 35.566406 155.011719 35.964844 155.40625 36.449219 155.40625 L 47.941406 155.40625 C 48.429688 155.40625 48.824219 155.011719 48.824219 154.523438 C 48.824219 154.035156 48.429688 153.640625 47.941406 153.640625 Z M 47.941406 151.234375 L 36.449219 151.234375 C 35.964844 151.234375 35.566406 151.632812 35.566406 152.117188 C 35.566406 152.605469 35.964844 153 36.449219 153 L 47.941406 153 C 48.429688 153 48.824219 152.605469 48.824219 152.117188 C 48.824219 151.632812 48.429688 151.234375 47.941406 151.234375 Z M 47.941406 148.832031 L 36.449219 148.832031 C 35.964844 148.832031 35.566406 149.226562 35.566406 149.714844 C 35.566406 150.199219 35.964844 150.597656 36.449219 150.597656 L 47.941406 150.597656 C 48.429688 150.597656 48.824219 150.199219 48.824219 149.714844 C 48.824219 149.226562 48.429688 148.832031 47.941406 148.832031 Z M 120.765625 87.855469 L 126.472656 87.855469 L 126.472656 109.484375 L 108.882812 109.484375 L 108.882812 87.285156 L 120.449219 87.285156 L 120.449219 87.535156 C 120.449219 87.710938 120.589844 87.855469 120.765625 87.855469 Z M 122.527344 92.265625 L 112.828125 92.265625 L 112.828125 104.503906 L 122.527344 104.503906 Z M 149.324219 108.503906 L 158.578125 108.503906 L 158.578125 96.824219 L 149.324219 96.824219 Z M 71.886719 132.230469 C 69.941406 132.230469 68.585938 133.054688 68.585938 133.792969 C 68.585938 134.535156 69.941406 135.359375 71.886719 135.359375 C 73.832031 135.359375 75.1875 134.535156 75.1875 133.792969 C 75.1875 133.054688 73.832031 132.230469 71.886719 132.230469 Z M 69.714844 138.039062 C 67.769531 138.039062 66.414062 138.863281 66.414062 139.605469 C 66.414062 140.34375 67.769531 141.167969 69.714844 141.167969 C 71.660156 141.167969 73.015625 140.34375 73.015625 139.605469 C 73.015625 138.863281 71.660156 138.039062 69.714844 138.039062 Z M 82.742188 140.359375 C 81.539062 140.359375 80.644531 140.851562 80.644531 141.292969 C 80.644531 141.738281 81.539062 142.230469 82.742188 142.230469 C 83.941406 142.230469 84.835938 141.738281 84.835938 141.292969 C 84.835938 140.851562 83.941406 140.359375 82.742188 140.359375 Z M 168.355469 132.230469 C 166.410156 132.230469 165.054688 133.054688 165.054688 133.792969 C 165.054688 134.535156 166.410156 135.359375 168.355469 135.359375 C 170.296875 135.359375 171.652344 134.535156 171.652344 133.792969 C 171.652344 133.054688 170.296875 132.230469 168.355469 132.230469 Z M 152.5625 135.902344 C 150.621094 135.902344 149.265625 136.726562 149.265625 137.46875 C 149.265625 138.207031 150.621094 139.03125 152.5625 139.03125 C 154.507812 139.03125 155.863281 138.207031 155.863281 137.46875 C 155.863281 136.726562 154.507812 135.902344 152.5625 135.902344 Z M 109.359375 138.039062 L 104.675781 138.039062 C 104.148438 138.039062 103.71875 138.46875 103.71875 138.996094 L 103.71875 140.210938 C 103.71875 140.738281 104.148438 141.167969 104.675781 141.167969 L 109.359375 141.167969 C 109.890625 141.167969 110.320312 140.738281 110.320312 140.210938 L 110.320312 138.996094 C 110.320312 138.46875 109.890625 138.039062 109.359375 138.039062 Z M 135.25 138.378906 L 130.566406 138.378906 C 130.035156 138.378906 129.605469 138.808594 129.605469 139.335938 L 129.605469 140.550781 C 129.605469 141.078125 130.035156 141.507812 130.566406 141.507812 L 135.25 141.507812 C 135.777344 141.507812 136.207031 141.078125 136.207031 140.550781 L 136.207031 139.335938 C 136.207031 138.808594 135.777344 138.378906 135.25 138.378906 Z M 135.25 138.378906 " fill-opacity="1" fill-rule="nonzero"/><path fill="#d7682b" d="M 61.429688 135.417969 C 61.570312 135.417969 61.703125 135.414062 61.839844 135.410156 L 65.773438 130.359375 C 65.832031 130.28125 65.925781 130.234375 66.023438 130.234375 L 68.929688 130.234375 L 68.164062 112.082031 C 68.15625 111.953125 68.230469 111.835938 68.34375 111.78125 L 72.183594 109.960938 C 71.710938 108.457031 69.644531 102.558594 68.527344 101.6875 C 67.523438 100.902344 65.785156 99.992188 65.003906 99.597656 C 64.832031 100.636719 64.160156 103.042969 61.589844 103.183594 C 58.992188 103.042969 58.3125 100.636719 58.140625 99.597656 C 57.359375 99.992188 55.621094 100.902344 54.613281 101.6875 C 54.085938 102.097656 53.351562 103.625 52.675781 105.269531 C 53.613281 107.589844 54.378906 110.003906 54.390625 110.046875 C 54.433594 110.195312 54.359375 110.355469 54.21875 110.421875 L 53.152344 110.925781 L 54.8125 111.785156 C 54.921875 111.839844 54.988281 111.957031 54.984375 112.082031 L 54.09375 133.109375 C 54.582031 133.546875 56.949219 135.417969 61.429688 135.417969 Z M 56.925781 107.914062 L 66.269531 107.914062 L 66.269531 122.667969 L 56.925781 122.667969 Z M 48.824219 172.382812 C 48.824219 172.871094 48.429688 173.265625 47.941406 173.265625 L 36.449219 173.265625 C 35.964844 173.265625 35.566406 172.871094 35.566406 172.382812 C 35.566406 171.898438 35.964844 171.5 36.449219 171.5 L 47.941406 171.5 C 48.429688 171.5 48.824219 171.898438 48.824219 172.382812 Z M 48.824219 169.980469 C 48.824219 170.464844 48.429688 170.863281 47.941406 170.863281 L 36.449219 170.863281 C 35.964844 170.863281 35.566406 170.46875 35.566406 169.980469 C 35.566406 169.492188 35.964844 169.097656 36.449219 169.097656 L 47.941406 169.097656 C 48.429688 169.097656 48.824219 169.492188 48.824219 169.980469 Z M 48.824219 167.574219 C 48.824219 168.0625 48.429688 168.460938 47.941406 168.460938 L 36.449219 168.460938 C 35.964844 168.460938 35.566406 168.0625 35.566406 167.574219 C 35.566406 167.089844 35.964844 166.691406 36.449219 166.691406 L 47.941406 166.691406 C 48.429688 166.691406 48.824219 167.089844 48.824219 167.574219 Z M 164.679688 89.039062 L 143.21875 89.039062 L 143.21875 116.289062 L 164.679688 116.289062 Z M 161.648438 112.378906 L 146.253906 112.378906 L 146.253906 92.953125 L 161.648438 92.953125 Z M 145.253906 163.589844 C 145.328125 161.605469 145.90625 151.097656 149.972656 149.148438 C 150.210938 149.296875 150.480469 149.398438 150.753906 149.453125 C 150.839844 149.46875 150.9375 149.476562 151.039062 149.476562 C 151.363281 149.476562 151.746094 149.382812 152.0625 149.121094 C 152.101562 149.085938 152.144531 149.046875 152.1875 149 C 156.597656 150.472656 157.214844 161.546875 157.289062 163.589844 Z M 69.488281 163.589844 C 69.5625 161.605469 70.140625 151.097656 74.207031 149.148438 C 74.445312 149.296875 74.71875 149.398438 74.988281 149.453125 C 75.074219 149.46875 75.171875 149.476562 75.273438 149.476562 C 75.597656 149.476562 75.980469 149.382812 76.296875 149.121094 C 76.339844 149.085938 76.382812 149.046875 76.425781 149 C 80.832031 150.472656 81.449219 161.546875 81.523438 163.589844 Z M 182.710938 144.699219 L 182.648438 198.722656 L 55.574219 198.722656 L 55.574219 144.699219 L 75.898438 144.699219 C 75.703125 144.898438 75.433594 145.140625 75.210938 145.34375 C 74.433594 146.042969 73.550781 146.835938 73.445312 147.582031 C 73.382812 148.027344 73.496094 148.398438 73.714844 148.695312 C 69.449219 151.105469 68.914062 161.582031 68.847656 163.589844 L 64.300781 163.589844 C 64.125 163.589844 63.984375 163.730469 63.984375 163.90625 L 63.984375 186.179688 C 63.984375 186.289062 64.039062 186.390625 64.128906 186.445312 C 64.253906 186.527344 67.234375 188.378906 76.027344 188.378906 C 84.816406 188.378906 87.800781 186.527344 87.921875 186.445312 C 88.015625 186.390625 88.070312 186.289062 88.070312 186.179688 L 88.070312 163.90625 C 88.070312 163.730469 87.925781 163.589844 87.75 163.589844 L 82.164062 163.589844 C 82.097656 161.5 81.519531 150.25 76.757812 148.445312 C 76.824219 148.257812 76.863281 148.03125 76.863281 147.757812 C 76.863281 147.582031 76.722656 147.441406 76.546875 147.441406 C 76.367188 147.441406 76.226562 147.582031 76.226562 147.757812 C 76.226562 147.953125 76.199219 148.125 76.140625 148.269531 C 75.933594 148.230469 75.722656 148.207031 75.5 148.199219 C 75.078125 148.210938 74.6875 148.285156 74.316406 148.417969 C 74.136719 148.226562 74.035156 147.976562 74.078125 147.671875 C 74.152344 147.15625 75.011719 146.382812 75.640625 145.816406 C 76.195312 145.3125 76.546875 144.984375 76.695312 144.699219 L 113.777344 144.699219 C 113.585938 144.898438 113.316406 145.140625 113.09375 145.34375 C 112.316406 146.042969 111.433594 146.839844 111.328125 147.582031 C 111.265625 148.027344 111.378906 148.402344 111.59375 148.695312 C 107.332031 151.105469 106.796875 161.578125 106.730469 163.589844 L 102.183594 163.589844 C 102.007812 163.589844 101.863281 163.730469 101.863281 163.90625 L 101.863281 186.179688 C 101.863281 186.289062 101.917969 186.390625 102.011719 186.445312 C 102.132812 186.527344 105.117188 188.382812 113.90625 188.382812 C 122.699219 188.382812 125.683594 186.527344 125.804688 186.445312 C 125.894531 186.390625 125.953125 186.289062 125.953125 186.179688 L 125.953125 163.90625 C 125.953125 163.730469 125.808594 163.589844 125.632812 163.589844 L 120.046875 163.589844 C 119.980469 161.5 119.402344 150.25 114.640625 148.445312 C 114.703125 148.257812 114.746094 148.03125 114.746094 147.761719 C 114.746094 147.582031 114.601562 147.441406 114.425781 147.441406 C 114.25 147.441406 114.109375 147.582031 114.109375 147.761719 C 114.109375 147.957031 114.078125 148.125 114.023438 148.269531 C 113.816406 148.230469 113.601562 148.207031 113.382812 148.199219 C 112.960938 148.210938 112.566406 148.289062 112.199219 148.417969 C 112.019531 148.226562 111.917969 147.980469 111.960938 147.671875 C 112.035156 147.15625 112.894531 146.382812 113.523438 145.816406 C 114.078125 145.3125 114.429688 144.984375 114.578125 144.699219 L 151.660156 144.699219 C 151.46875 144.898438 151.199219 145.140625 150.976562 145.34375 C 150.199219 146.042969 149.316406 146.839844 149.210938 147.582031 C 149.148438 148.027344 149.261719 148.402344 149.476562 148.695312 C 145.214844 151.105469 144.675781 161.582031 144.613281 163.589844 L 140.066406 163.589844 C 139.890625 163.589844 139.746094 163.730469 139.746094 163.910156 L 139.746094 186.179688 C 139.746094 186.289062 139.800781 186.390625 139.894531 186.449219 C 140.015625 186.527344 142.996094 188.382812 151.789062 188.382812 C 160.582031 188.382812 163.566406 186.527344 163.6875 186.449219 C 163.777344 186.390625 163.832031 186.289062 163.832031 186.179688 L 163.832031 163.910156 C 163.832031 163.730469 163.691406 163.589844 163.515625 163.589844 L 157.929688 163.589844 C 157.863281 161.5 157.285156 150.25 152.519531 148.445312 C 152.585938 148.257812 152.628906 148.03125 152.628906 147.761719 C 152.628906 147.585938 152.484375 147.441406 152.308594 147.441406 C 152.132812 147.441406 151.988281 147.585938 151.988281 147.761719 C 151.988281 147.957031 151.960938 148.125 151.90625 148.269531 C 151.699219 148.230469 151.484375 148.207031 151.265625 148.199219 C 150.84375 148.210938 150.449219 148.289062 150.082031 148.417969 C 149.902344 148.230469 149.800781 147.980469 149.84375 147.671875 C 149.914062 147.15625 150.777344 146.382812 151.402344 145.816406 C 151.960938 145.316406 152.3125 144.984375 152.457031 144.699219 Z M 107.371094 163.589844 C 107.445312 161.601562 108.023438 151.097656 112.089844 149.148438 C 112.328125 149.296875 112.597656 149.398438 112.871094 149.453125 C 112.957031 149.46875 113.054688 149.476562 113.15625 149.476562 C 113.480469 149.476562 113.863281 149.382812 114.179688 149.121094 C 114.222656 149.085938 114.265625 149.046875 114.304688 149 C 118.714844 150.472656 119.332031 161.546875 119.40625 163.589844 L 115.1875 163.589844 C 115.1875 163.589844 115.1875 163.589844 115.183594 163.589844 Z M 84.375 137.46875 C 84.375 136.726562 85.730469 135.902344 87.675781 135.902344 C 89.621094 135.902344 90.976562 136.726562 90.976562 137.46875 C 90.976562 138.207031 89.621094 139.03125 87.675781 139.03125 C 85.730469 139.03125 84.375 138.207031 84.375 137.46875 Z M 142.535156 134.292969 C 142.535156 133.554688 143.890625 132.730469 145.835938 132.730469 C 147.78125 132.730469 149.136719 133.554688 149.136719 134.292969 C 149.136719 135.035156 147.78125 135.859375 145.835938 135.859375 C 143.890625 135.859375 142.535156 135.035156 142.535156 134.292969 Z M 167.226562 139.605469 C 167.226562 138.863281 168.582031 138.039062 170.523438 138.039062 C 172.46875 138.039062 173.824219 138.863281 173.824219 139.605469 C 173.824219 140.34375 172.46875 141.167969 170.523438 141.167969 C 168.582031 141.167969 167.226562 140.34375 167.226562 139.605469 Z M 112.863281 138.328125 L 112.863281 137.113281 C 112.863281 136.585938 113.292969 136.15625 113.820312 136.15625 L 118.503906 136.15625 C 119.03125 136.15625 119.460938 136.585938 119.460938 137.113281 L 119.460938 138.328125 C 119.460938 138.855469 119.03125 139.285156 118.503906 139.285156 L 113.820312 139.285156 C 113.292969 139.285156 112.863281 138.855469 112.863281 138.328125 Z M 112.863281 138.328125 " fill-opacity="1" fill-rule="nonzero"/></svg>