<svg xmlns="http://www.w3.org/2000/svg" xmlns:xlink="http://www.w3.org/1999/xlink" width="280" zoomAndPan="magnify" viewBox="0 0 210 209.999996" height="280" preserveAspectRatio="xMidYMid meet" version="1.0"><defs><clipPath id="de91e250f7"><path d="M 24 11.15625 L 140 11.15625 L 140 174 L 24 174 Z M 24 11.15625 " clip-rule="nonzero"/></clipPath><clipPath id="5e45f23973"><path d="M 114 140 L 210 140 L 210 198.65625 L 114 198.65625 Z M 114 140 " clip-rule="nonzero"/></clipPath><clipPath id="51e8645120"><path d="M 0 83 L 13 83 L 13 198.65625 L 0 198.65625 Z M 0 83 " clip-rule="nonzero"/></clipPath><clipPath id="6990e54594"><path d="M 0 187 L 13 187 L 13 198.65625 L 0 198.65625 Z M 0 187 " clip-rule="nonzero"/></clipPath><clipPath id="916c7cf34d"><path d="M 120 11.15625 L 185 11.15625 L 185 75 L 120 75 Z M 120 11.15625 " clip-rule="nonzero"/></clipPath></defs><rect x="-21" width="252" fill="#ffffff" y="-21" height="251.999995" fill-opacity="1"/><rect x="-21" width="252" fill="#ffffff" y="-21" height="251.999995" fill-opacity="1"/><path fill="#ffffff" d="M 25.027344 12.234375 L 138.507812 12.234375 L 138.507812 172.570312 L 25.027344 172.570312 Z M 25.027344 12.234375 " fill-opacity="1" fill-rule="nonzero"/><path fill="#92deeb" d="M 64.511719 125.402344 C 64.511719 125.832031 64.472656 126.257812 64.386719 126.679688 C 64.304688 127.101562 64.179688 127.511719 64.015625 127.90625 C 63.851562 128.304688 63.648438 128.679688 63.410156 129.039062 C 63.171875 129.394531 62.898438 129.726562 62.59375 130.03125 C 62.289062 130.335938 61.957031 130.605469 61.601562 130.84375 C 61.242188 131.082031 60.867188 131.285156 60.46875 131.449219 C 60.070312 131.613281 59.660156 131.738281 59.238281 131.824219 C 58.816406 131.90625 58.390625 131.949219 57.960938 131.949219 C 57.53125 131.949219 57.105469 131.90625 56.683594 131.824219 C 56.261719 131.738281 55.851562 131.613281 55.453125 131.449219 C 55.054688 131.285156 54.675781 131.082031 54.320312 130.84375 C 53.960938 130.605469 53.632812 130.335938 53.328125 130.03125 C 53.023438 129.726562 52.75 129.394531 52.511719 129.039062 C 52.273438 128.679688 52.070312 128.304688 51.90625 127.90625 C 51.742188 127.511719 51.617188 127.101562 51.535156 126.679688 C 51.449219 126.257812 51.40625 125.832031 51.40625 125.402344 C 51.40625 124.972656 51.449219 124.546875 51.535156 124.125 C 51.617188 123.703125 51.742188 123.292969 51.90625 122.898438 C 52.070312 122.5 52.273438 122.121094 52.511719 121.765625 C 52.75 121.40625 53.023438 121.078125 53.328125 120.773438 C 53.632812 120.46875 53.960938 120.199219 54.320312 119.957031 C 54.675781 119.71875 55.054688 119.519531 55.453125 119.355469 C 55.851562 119.1875 56.261719 119.066406 56.683594 118.980469 C 57.105469 118.898438 57.53125 118.855469 57.960938 118.855469 C 58.390625 118.855469 58.816406 118.898438 59.238281 118.980469 C 59.660156 119.066406 60.070312 119.1875 60.46875 119.355469 C 60.867188 119.519531 61.242188 119.71875 61.601562 119.957031 C 61.957031 120.199219 62.289062 120.46875 62.59375 120.773438 C 62.898438 121.078125 63.171875 121.40625 63.410156 121.765625 C 63.648438 122.121094 63.851562 122.5 64.015625 122.898438 C 64.179688 123.292969 64.304688 123.703125 64.386719 124.125 C 64.472656 124.546875 64.511719 124.972656 64.511719 125.402344 Z M 64.511719 125.402344 " fill-opacity="1" fill-rule="nonzero"/><path fill="#f77b55" d="M 88.320312 125.402344 C 88.320312 125.832031 88.28125 126.257812 88.195312 126.679688 C 88.113281 127.101562 87.988281 127.511719 87.824219 127.90625 C 87.65625 128.304688 87.457031 128.683594 87.21875 129.039062 C 86.976562 129.398438 86.707031 129.726562 86.402344 130.03125 C 86.097656 130.335938 85.765625 130.605469 85.410156 130.84375 C 85.050781 131.085938 84.675781 131.285156 84.277344 131.449219 C 83.878906 131.613281 83.46875 131.738281 83.046875 131.824219 C 82.625 131.90625 82.199219 131.949219 81.769531 131.949219 C 81.339844 131.949219 80.914062 131.90625 80.492188 131.824219 C 80.070312 131.738281 79.660156 131.613281 79.261719 131.449219 C 78.863281 131.285156 78.488281 131.085938 78.128906 130.84375 C 77.773438 130.605469 77.441406 130.335938 77.136719 130.03125 C 76.832031 129.726562 76.5625 129.398438 76.320312 129.039062 C 76.082031 128.683594 75.882812 128.304688 75.714844 127.90625 C 75.550781 127.511719 75.425781 127.101562 75.34375 126.679688 C 75.257812 126.257812 75.21875 125.832031 75.21875 125.402344 C 75.21875 124.972656 75.257812 124.546875 75.34375 124.125 C 75.425781 123.703125 75.550781 123.296875 75.714844 122.898438 C 75.882812 122.5 76.082031 122.125 76.320312 121.765625 C 76.5625 121.410156 76.832031 121.078125 77.136719 120.773438 C 77.441406 120.472656 77.773438 120.199219 78.128906 119.960938 C 78.488281 119.722656 78.863281 119.519531 79.261719 119.355469 C 79.660156 119.191406 80.070312 119.066406 80.492188 118.984375 C 80.914062 118.898438 81.339844 118.859375 81.769531 118.859375 C 82.199219 118.859375 82.625 118.898438 83.046875 118.984375 C 83.46875 119.066406 83.878906 119.191406 84.277344 119.355469 C 84.675781 119.519531 85.050781 119.722656 85.410156 119.960938 C 85.765625 120.199219 86.097656 120.472656 86.402344 120.773438 C 86.707031 121.078125 86.976562 121.410156 87.21875 121.765625 C 87.457031 122.125 87.65625 122.5 87.824219 122.898438 C 87.988281 123.296875 88.113281 123.703125 88.195312 124.125 C 88.28125 124.546875 88.320312 124.972656 88.320312 125.402344 Z M 88.320312 125.402344 " fill-opacity="1" fill-rule="nonzero"/><path fill="#fdca5c" d="M 112.132812 125.402344 C 112.132812 125.832031 112.089844 126.257812 112.003906 126.679688 C 111.921875 127.101562 111.796875 127.511719 111.632812 127.910156 C 111.46875 128.304688 111.265625 128.683594 111.027344 129.039062 C 110.789062 129.398438 110.515625 129.730469 110.210938 130.03125 C 109.90625 130.335938 109.578125 130.609375 109.21875 130.847656 C 108.859375 131.085938 108.484375 131.289062 108.085938 131.453125 C 107.6875 131.617188 107.277344 131.742188 106.855469 131.824219 C 106.433594 131.910156 106.007812 131.949219 105.578125 131.949219 C 105.148438 131.949219 104.722656 131.910156 104.300781 131.824219 C 103.878906 131.742188 103.46875 131.617188 103.070312 131.453125 C 102.671875 131.289062 102.292969 131.085938 101.9375 130.847656 C 101.578125 130.609375 101.246094 130.335938 100.941406 130.03125 C 100.640625 129.730469 100.367188 129.398438 100.128906 129.039062 C 99.890625 128.683594 99.6875 128.304688 99.523438 127.910156 C 99.359375 127.511719 99.234375 127.101562 99.148438 126.679688 C 99.066406 126.257812 99.023438 125.832031 99.023438 125.402344 C 99.023438 124.972656 99.066406 124.546875 99.148438 124.125 C 99.234375 123.703125 99.359375 123.292969 99.523438 122.898438 C 99.6875 122.5 99.890625 122.121094 100.128906 121.765625 C 100.367188 121.40625 100.640625 121.078125 100.941406 120.773438 C 101.246094 120.46875 101.578125 120.199219 101.9375 119.957031 C 102.292969 119.71875 102.671875 119.519531 103.070312 119.355469 C 103.46875 119.1875 103.878906 119.066406 104.300781 118.980469 C 104.722656 118.898438 105.148438 118.855469 105.578125 118.855469 C 106.007812 118.855469 106.433594 118.898438 106.855469 118.980469 C 107.277344 119.066406 107.6875 119.1875 108.085938 119.355469 C 108.484375 119.519531 108.859375 119.71875 109.21875 119.957031 C 109.578125 120.199219 109.90625 120.46875 110.210938 120.773438 C 110.515625 121.078125 110.789062 121.40625 111.027344 121.765625 C 111.265625 122.121094 111.46875 122.5 111.632812 122.898438 C 111.796875 123.292969 111.921875 123.703125 112.007812 124.125 C 112.089844 124.546875 112.132812 124.972656 112.132812 125.402344 Z M 112.132812 125.402344 " fill-opacity="1" fill-rule="nonzero"/><path fill="#f77b55" d="M 29.078125 16.285156 L 134.457031 16.285156 L 134.457031 23.84375 L 29.078125 23.84375 Z M 29.078125 16.285156 " fill-opacity="1" fill-rule="nonzero"/><path fill="#92deeb" d="M 81.769531 81.671875 L 59.441406 103.980469 L 104.097656 103.980469 Z M 81.769531 81.671875 " fill-opacity="1" fill-rule="nonzero"/><path fill="#fdca5c" d="M 81.769531 81.671875 L 59.441406 59.367188 L 59.441406 103.980469 Z M 81.769531 81.671875 " fill-opacity="1" fill-rule="nonzero"/><path fill="#f77b55" d="M 59.441406 59.367188 L 81.769531 81.671875 L 104.097656 103.980469 L 104.097656 59.367188 Z M 59.441406 59.367188 " fill-opacity="1" fill-rule="nonzero"/><g clip-path="url(#de91e250f7)"><path fill="#232e38" d="M 138.507812 173.582031 L 25.027344 173.582031 C 24.46875 173.582031 24.019531 173.128906 24.019531 172.570312 L 24.019531 12.234375 C 24.019531 11.675781 24.46875 11.226562 25.027344 11.226562 L 138.507812 11.226562 C 139.070312 11.226562 139.519531 11.675781 139.519531 12.234375 L 139.519531 172.570312 C 139.519531 173.128906 139.070312 173.582031 138.507812 173.582031 Z M 26.039062 171.5625 L 137.5 171.5625 L 137.5 13.246094 L 26.039062 13.246094 Z M 26.039062 171.5625 " fill-opacity="1" fill-rule="nonzero"/></g><path fill="#232e38" d="M 57.960938 132.957031 C 53.792969 132.957031 50.398438 129.566406 50.398438 125.402344 C 50.398438 121.234375 53.789062 117.847656 57.960938 117.847656 C 62.132812 117.847656 65.523438 121.234375 65.523438 125.402344 C 65.523438 129.566406 62.132812 132.957031 57.960938 132.957031 Z M 57.960938 119.863281 C 54.90625 119.863281 52.417969 122.347656 52.417969 125.402344 C 52.417969 128.453125 54.902344 130.9375 57.960938 130.9375 C 61.019531 130.9375 63.503906 128.453125 63.503906 125.402344 C 63.503906 122.347656 61.019531 119.863281 57.960938 119.863281 Z M 57.960938 119.863281 " fill-opacity="1" fill-rule="nonzero"/><path fill="#232e38" d="M 81.769531 132.957031 C 77.597656 132.957031 74.207031 129.566406 74.207031 125.402344 C 74.207031 121.234375 77.597656 117.847656 81.769531 117.847656 C 85.9375 117.847656 89.332031 121.234375 89.332031 125.402344 C 89.332031 129.566406 85.9375 132.957031 81.769531 132.957031 Z M 81.769531 119.863281 C 78.714844 119.863281 76.226562 122.347656 76.226562 125.402344 C 76.226562 128.453125 78.714844 130.9375 81.769531 130.9375 C 84.824219 130.9375 87.3125 128.453125 87.3125 125.402344 C 87.3125 122.347656 84.824219 119.863281 81.769531 119.863281 Z M 81.769531 119.863281 " fill-opacity="1" fill-rule="nonzero"/><path fill="#232e38" d="M 105.574219 132.957031 C 101.40625 132.957031 98.015625 129.566406 98.015625 125.402344 C 98.015625 121.234375 101.40625 117.847656 105.574219 117.847656 C 109.746094 117.847656 113.140625 121.234375 113.140625 125.402344 C 113.140625 129.566406 109.746094 132.957031 105.574219 132.957031 Z M 105.574219 119.863281 C 102.519531 119.863281 100.035156 122.347656 100.035156 125.402344 C 100.035156 128.453125 102.519531 130.9375 105.574219 130.9375 C 108.632812 130.9375 111.121094 128.453125 111.121094 125.402344 C 111.121094 122.347656 108.632812 119.863281 105.574219 119.863281 Z M 105.574219 119.863281 " fill-opacity="1" fill-rule="nonzero"/><path fill="#232e38" d="M 134.457031 24.847656 L 29.078125 24.847656 C 28.519531 24.847656 28.070312 24.398438 28.070312 23.839844 L 28.070312 16.285156 C 28.070312 15.726562 28.523438 15.273438 29.078125 15.273438 L 134.457031 15.273438 C 135.015625 15.273438 135.464844 15.726562 135.464844 16.285156 L 135.464844 23.839844 C 135.464844 24.398438 135.015625 24.847656 134.457031 24.847656 Z M 30.089844 22.832031 L 133.445312 22.832031 L 133.445312 17.292969 L 30.089844 17.292969 Z M 30.089844 22.832031 " fill-opacity="1" fill-rule="nonzero"/><path fill="#232e38" d="M 104.097656 104.988281 L 59.441406 104.988281 C 59.03125 104.988281 58.664062 104.746094 58.507812 104.367188 C 58.351562 103.992188 58.4375 103.558594 58.726562 103.269531 L 81.054688 80.960938 C 81.433594 80.582031 82.105469 80.582031 82.480469 80.960938 L 104.8125 103.269531 C 105.101562 103.554688 105.1875 103.992188 105.03125 104.367188 C 104.875 104.742188 104.507812 104.988281 104.097656 104.988281 Z M 61.878906 102.972656 L 101.660156 102.972656 L 81.769531 83.101562 Z M 61.878906 102.972656 " fill-opacity="1" fill-rule="nonzero"/><path fill="#232e38" d="M 59.441406 104.988281 C 59.308594 104.988281 59.179688 104.96875 59.054688 104.914062 C 58.675781 104.757812 58.429688 104.390625 58.429688 103.980469 L 58.429688 59.367188 C 58.429688 58.957031 58.675781 58.589844 59.054688 58.433594 C 59.433594 58.277344 59.867188 58.363281 60.15625 58.652344 L 82.484375 80.957031 C 82.878906 81.351562 82.878906 81.992188 82.484375 82.382812 L 60.15625 104.695312 C 59.960938 104.886719 59.703125 104.988281 59.441406 104.988281 Z M 60.453125 61.804688 L 60.453125 101.542969 L 80.339844 81.671875 Z M 60.453125 61.804688 " fill-opacity="1" fill-rule="nonzero"/><path fill="#232e38" d="M 104.097656 104.988281 C 103.832031 104.988281 103.574219 104.886719 103.382812 104.695312 L 58.726562 60.078125 C 58.4375 59.792969 58.351562 59.359375 58.507812 58.980469 C 58.664062 58.601562 59.03125 58.355469 59.441406 58.355469 L 104.097656 58.355469 C 104.652344 58.355469 105.105469 58.808594 105.105469 59.367188 L 105.105469 103.980469 C 105.105469 104.390625 104.859375 104.757812 104.484375 104.914062 C 104.359375 104.964844 104.226562 104.988281 104.097656 104.988281 Z M 61.878906 60.375 L 103.085938 101.542969 L 103.085938 60.375 Z M 61.878906 60.375 " fill-opacity="1" fill-rule="nonzero"/><path fill="#232e38" d="M 133.648438 150.371094 L 29.894531 150.371094 C 29.335938 150.371094 28.882812 149.917969 28.882812 149.359375 C 28.882812 148.804688 29.335938 148.351562 29.894531 148.351562 L 133.648438 148.351562 C 134.203125 148.351562 134.65625 148.804688 134.65625 149.359375 C 134.65625 149.917969 134.203125 150.371094 133.648438 150.371094 Z M 133.648438 150.371094 " fill-opacity="1" fill-rule="nonzero"/><path fill="#232e38" d="M 133.648438 155.675781 L 29.894531 155.675781 C 29.335938 155.675781 28.882812 155.226562 28.882812 154.667969 C 28.882812 154.109375 29.335938 153.660156 29.894531 153.660156 L 133.648438 153.660156 C 134.203125 153.660156 134.65625 154.109375 134.65625 154.667969 C 134.65625 155.226562 134.203125 155.675781 133.648438 155.675781 Z M 133.648438 155.675781 " fill-opacity="1" fill-rule="nonzero"/><path fill="#232e38" d="M 81.769531 160.984375 L 29.894531 160.984375 C 29.335938 160.984375 28.882812 160.53125 28.882812 159.972656 C 28.882812 159.417969 29.335938 158.964844 29.894531 158.964844 L 81.769531 158.964844 C 82.328125 158.964844 82.78125 159.417969 82.78125 159.972656 C 82.78125 160.53125 82.328125 160.984375 81.769531 160.984375 Z M 81.769531 160.984375 " fill-opacity="1" fill-rule="nonzero"/><path fill="#232e38" d="M 107.828125 29.617188 L 55.753906 29.617188 C 55.195312 29.617188 54.742188 29.167969 54.742188 28.609375 C 54.742188 28.054688 55.191406 27.601562 55.753906 27.601562 L 107.828125 27.601562 C 108.386719 27.601562 108.839844 28.054688 108.839844 28.609375 C 108.835938 29.167969 108.386719 29.617188 107.828125 29.617188 Z M 107.828125 29.617188 " fill-opacity="1" fill-rule="nonzero"/><path fill="#232e38" d="M 81.789062 34.929688 L 55.753906 34.929688 C 55.195312 34.929688 54.742188 34.476562 54.742188 33.917969 C 54.742188 33.359375 55.191406 32.910156 55.753906 32.910156 L 81.789062 32.910156 C 82.347656 32.910156 82.800781 33.359375 82.800781 33.917969 C 82.800781 34.476562 82.347656 34.929688 81.789062 34.929688 Z M 81.789062 34.929688 " fill-opacity="1" fill-rule="nonzero"/><path fill="#fdca5c" d="M 115.3125 141.40625 L 208.839844 141.40625 L 208.839844 197.46875 L 115.3125 197.46875 Z M 115.3125 141.40625 " fill-opacity="1" fill-rule="nonzero"/><path fill="#92deeb" d="M 115.277344 141.40625 L 162.078125 175.976562 L 208.875 141.40625 Z M 115.277344 141.40625 " fill-opacity="1" fill-rule="nonzero"/><g clip-path="url(#5e45f23973)"><path fill="#232e38" d="M 208.839844 198.480469 L 115.3125 198.480469 C 114.753906 198.480469 114.300781 198.027344 114.300781 197.46875 L 114.300781 141.40625 C 114.300781 140.851562 114.753906 140.398438 115.3125 140.398438 L 208.839844 140.398438 C 209.398438 140.398438 209.851562 140.851562 209.851562 141.40625 L 209.851562 197.46875 C 209.851562 198.027344 209.398438 198.480469 208.839844 198.480469 Z M 116.320312 196.460938 L 207.832031 196.460938 L 207.832031 142.414062 L 116.320312 142.414062 Z M 116.320312 196.460938 " fill-opacity="1" fill-rule="nonzero"/></g><path fill="#232e38" d="M 162.078125 176.984375 C 161.867188 176.984375 161.65625 176.917969 161.476562 176.789062 L 114.679688 142.21875 C 114.328125 141.957031 114.183594 141.503906 114.320312 141.089844 C 114.457031 140.675781 114.84375 140.398438 115.277344 140.398438 L 208.875 140.398438 C 209.3125 140.398438 209.699219 140.675781 209.835938 141.089844 C 209.972656 141.503906 209.828125 141.957031 209.476562 142.21875 L 162.675781 176.789062 C 162.5 176.921875 162.289062 176.984375 162.078125 176.984375 Z M 118.34375 142.414062 L 162.078125 174.722656 L 205.808594 142.414062 Z M 118.34375 142.414062 " fill-opacity="1" fill-rule="nonzero"/><path fill="#ffffff" d="M 11.277344 83.867188 L 6.066406 73.445312 L 0.847656 83.867188 Z M 11.277344 83.867188 " fill-opacity="1" fill-rule="nonzero"/><path fill="#fdca5c" d="M 0.847656 83.867188 L 11.28125 83.867188 L 11.28125 197.46875 L 0.847656 197.46875 Z M 0.847656 83.867188 " fill-opacity="1" fill-rule="nonzero"/><path fill="#232e38" d="M 8.101562 77.523438 L 6.066406 73.445312 L 4.015625 77.523438 Z M 8.101562 77.523438 " fill-opacity="1" fill-rule="nonzero"/><path fill="#ffffff" d="M 0.847656 185.042969 L 11.28125 185.042969 L 11.28125 188.726562 L 0.847656 188.726562 Z M 0.847656 185.042969 " fill-opacity="1" fill-rule="nonzero"/><path fill="#f77b55" d="M 0.847656 188.726562 L 11.28125 188.726562 L 11.28125 197.46875 L 0.847656 197.46875 Z M 0.847656 188.726562 " fill-opacity="1" fill-rule="nonzero"/><path fill="#232e38" d="M 11.277344 84.714844 L 0.847656 84.714844 C 0.554688 84.714844 0.28125 84.5625 0.128906 84.316406 C -0.0273438 84.066406 -0.0390625 83.753906 0.0898438 83.488281 L 5.308594 73.066406 C 5.449219 72.78125 5.746094 72.597656 6.066406 72.597656 C 6.386719 72.597656 6.679688 72.78125 6.824219 73.066406 L 12.039062 83.492188 C 12.171875 83.753906 12.15625 84.066406 12.003906 84.316406 C 11.847656 84.566406 11.574219 84.714844 11.277344 84.714844 Z M 2.21875 83.023438 L 9.90625 83.023438 L 6.0625 75.339844 Z M 2.21875 83.023438 " fill-opacity="1" fill-rule="nonzero"/><g clip-path="url(#51e8645120)"><path fill="#232e38" d="M 11.277344 198.3125 L 0.847656 198.3125 C 0.378906 198.3125 0 197.933594 0 197.464844 L 0 83.867188 C 0 83.402344 0.378906 83.023438 0.847656 83.023438 L 11.28125 83.023438 C 11.75 83.023438 12.128906 83.402344 12.128906 83.867188 L 12.128906 197.46875 C 12.128906 197.9375 11.746094 198.3125 11.277344 198.3125 Z M 1.695312 196.621094 L 10.429688 196.621094 L 10.429688 84.714844 L 1.695312 84.714844 Z M 1.695312 196.621094 " fill-opacity="1" fill-rule="nonzero"/></g><path fill="#232e38" d="M 8.101562 78.371094 L 4.015625 78.371094 C 3.71875 78.371094 3.445312 78.21875 3.292969 77.96875 C 3.136719 77.71875 3.125 77.40625 3.257812 77.140625 L 5.304688 73.066406 C 5.449219 72.78125 5.742188 72.597656 6.066406 72.597656 C 6.386719 72.597656 6.679688 72.78125 6.824219 73.066406 L 8.859375 77.148438 C 8.992188 77.410156 8.980469 77.722656 8.824219 77.96875 C 8.667969 78.21875 8.398438 78.371094 8.101562 78.371094 Z M 5.386719 76.675781 L 6.730469 76.675781 L 6.0625 75.339844 Z M 5.386719 76.675781 " fill-opacity="1" fill-rule="nonzero"/><path fill="#232e38" d="M 11.277344 189.574219 L 0.847656 189.574219 C 0.378906 189.574219 0 189.195312 0 188.726562 L 0 185.042969 C 0 184.574219 0.378906 184.195312 0.847656 184.195312 L 11.28125 184.195312 C 11.75 184.195312 12.128906 184.574219 12.128906 185.042969 L 12.128906 188.726562 C 12.128906 189.191406 11.746094 189.574219 11.277344 189.574219 Z M 1.695312 187.878906 L 10.429688 187.878906 L 10.429688 185.886719 L 1.695312 185.886719 Z M 1.695312 187.878906 " fill-opacity="1" fill-rule="nonzero"/><path fill="#ffffff" d="M 0.847656 188.726562 L 11.28125 188.726562 L 11.28125 197.46875 L 0.847656 197.46875 Z M 0.847656 188.726562 " fill-opacity="1" fill-rule="nonzero"/><g clip-path="url(#6990e54594)"><path fill="#232e38" d="M 11.277344 198.3125 L 0.847656 198.3125 C 0.378906 198.3125 0 197.933594 0 197.464844 L 0 188.722656 C 0 188.257812 0.378906 187.875 0.847656 187.875 L 11.28125 187.875 C 11.75 187.875 12.128906 188.253906 12.128906 188.722656 L 12.128906 197.464844 C 12.128906 197.9375 11.746094 198.3125 11.277344 198.3125 Z M 1.695312 196.621094 L 10.429688 196.621094 L 10.429688 189.574219 L 1.695312 189.574219 Z M 1.695312 196.621094 " fill-opacity="1" fill-rule="nonzero"/></g><path fill="#ffffff" d="M 153.261719 88.90625 L 208.875 88.90625 L 208.875 125.945312 L 153.261719 125.945312 Z M 153.261719 88.90625 " fill-opacity="1" fill-rule="nonzero"/><path fill="#92deeb" d="M 181.066406 107.425781 L 173.652344 114.835938 L 188.484375 114.835938 Z M 181.066406 107.425781 " fill-opacity="1" fill-rule="nonzero"/><path fill="#fdca5c" d="M 181.066406 107.425781 L 173.652344 100.019531 L 173.652344 114.835938 Z M 181.066406 107.425781 " fill-opacity="1" fill-rule="nonzero"/><path fill="#f77b55" d="M 173.652344 100.019531 L 181.066406 107.425781 L 188.484375 114.835938 L 188.484375 100.019531 Z M 173.652344 100.019531 " fill-opacity="1" fill-rule="nonzero"/><path fill="#232e38" d="M 208.875 126.957031 L 153.261719 126.957031 C 152.703125 126.957031 152.25 126.503906 152.25 125.945312 L 152.25 88.90625 C 152.25 88.347656 152.703125 87.898438 153.261719 87.898438 L 208.875 87.898438 C 209.433594 87.898438 209.882812 88.347656 209.882812 88.90625 L 209.882812 125.945312 C 209.882812 126.503906 209.433594 126.957031 208.875 126.957031 Z M 154.269531 124.9375 L 207.863281 124.9375 L 207.863281 89.917969 L 154.269531 89.917969 Z M 154.269531 124.9375 " fill-opacity="1" fill-rule="nonzero"/><path fill="#232e38" d="M 188.484375 115.546875 L 173.652344 115.546875 C 173.363281 115.546875 173.105469 115.371094 172.992188 115.105469 C 172.882812 114.839844 172.941406 114.53125 173.148438 114.332031 L 180.5625 106.921875 C 180.839844 106.644531 181.292969 106.644531 181.570312 106.921875 L 188.984375 114.332031 C 189.191406 114.53125 189.25 114.839844 189.140625 115.105469 C 189.03125 115.371094 188.773438 115.546875 188.484375 115.546875 Z M 175.371094 114.121094 L 186.761719 114.121094 L 181.066406 108.433594 Z M 175.371094 114.121094 " fill-opacity="1" fill-rule="nonzero"/><path fill="#232e38" d="M 173.652344 115.546875 C 173.558594 115.546875 173.46875 115.527344 173.378906 115.492188 C 173.113281 115.382812 172.941406 115.121094 172.941406 114.832031 L 172.941406 100.019531 C 172.941406 99.734375 173.113281 99.472656 173.378906 99.359375 C 173.644531 99.253906 173.953125 99.3125 174.15625 99.515625 L 181.570312 106.921875 C 181.707031 107.054688 181.777344 107.238281 181.777344 107.425781 C 181.777344 107.613281 181.707031 107.796875 181.570312 107.925781 L 174.15625 115.335938 C 174.019531 115.472656 173.835938 115.546875 173.652344 115.546875 Z M 174.363281 101.738281 L 174.363281 113.113281 L 180.058594 107.425781 Z M 174.363281 101.738281 " fill-opacity="1" fill-rule="nonzero"/><path fill="#232e38" d="M 188.484375 115.546875 C 188.296875 115.546875 188.113281 115.472656 187.980469 115.335938 L 173.148438 100.523438 C 172.945312 100.320312 172.882812 100.015625 172.992188 99.75 C 173.105469 99.480469 173.363281 99.308594 173.652344 99.308594 L 188.484375 99.308594 C 188.878906 99.308594 189.199219 99.628906 189.199219 100.023438 L 189.199219 114.835938 C 189.199219 115.121094 189.023438 115.382812 188.757812 115.492188 C 188.667969 115.53125 188.574219 115.546875 188.484375 115.546875 Z M 175.375 100.730469 L 187.769531 113.113281 L 187.769531 100.730469 Z M 175.375 100.730469 " fill-opacity="1" fill-rule="nonzero"/><path fill="#ffffff" d="M 208.875 42.839844 C 208.875 28.605469 197.324219 17.054688 183.070312 17.054688 C 168.820312 17.054688 157.261719 28.601562 157.261719 42.839844 C 157.261719 57.078125 168.820312 68.621094 183.070312 68.621094 C 197.324219 68.621094 208.875 57.078125 208.875 42.839844 Z M 179.066406 42.839844 C 179.066406 40.625 180.859375 38.839844 183.070312 38.839844 C 185.28125 38.839844 187.078125 40.628906 187.082031 42.839844 C 187.078125 45.050781 185.28125 46.839844 183.070312 46.839844 C 180.859375 46.839844 179.066406 45.050781 179.066406 42.839844 Z M 179.066406 42.839844 " fill-opacity="1" fill-rule="nonzero"/><path fill="#92deeb" d="M 193.394531 42.839844 C 193.394531 37.144531 188.765625 32.527344 183.066406 32.523438 C 177.363281 32.523438 172.75 37.144531 172.746094 42.839844 C 172.746094 48.535156 177.367188 53.152344 183.066406 53.148438 C 188.769531 53.152344 193.394531 48.539062 193.394531 42.839844 Z M 178.828125 42.839844 C 178.828125 40.496094 180.730469 38.601562 183.070312 38.605469 C 185.417969 38.605469 187.3125 40.496094 187.3125 42.839844 C 187.3125 45.183594 185.414062 47.078125 183.070312 47.078125 C 180.730469 47.078125 178.828125 45.183594 178.828125 42.839844 Z M 178.828125 42.839844 " fill-opacity="1" fill-rule="nonzero"/><path fill="#fdca5c" d="M 189.550781 42.839844 C 189.554688 39.269531 186.648438 36.367188 183.070312 36.367188 C 179.496094 36.367188 176.589844 39.269531 176.589844 42.839844 C 176.589844 46.410156 179.496094 49.308594 183.070312 49.308594 C 186.648438 49.308594 189.554688 46.410156 189.550781 42.839844 Z M 179.066406 42.839844 C 179.066406 40.625 180.859375 38.839844 183.070312 38.839844 C 185.28125 38.839844 187.078125 40.628906 187.082031 42.839844 C 187.078125 45.050781 185.28125 46.839844 183.070312 46.839844 C 180.859375 46.839844 179.066406 45.050781 179.066406 42.839844 Z M 179.066406 42.839844 " fill-opacity="1" fill-rule="nonzero"/><path fill="#ffffff" d="M 121.796875 12.234375 L 183.070312 12.234375 L 183.070312 73.445312 L 121.796875 73.445312 Z M 121.796875 12.234375 " fill-opacity="1" fill-rule="nonzero"/><path fill="#92deeb" d="M 130.519531 47 C 130.519531 47.308594 130.460938 47.605469 130.34375 47.890625 C 130.222656 48.175781 130.054688 48.425781 129.835938 48.644531 C 129.621094 48.863281 129.367188 49.03125 129.082031 49.148438 C 128.796875 49.265625 128.5 49.324219 128.191406 49.324219 C 127.882812 49.324219 127.585938 49.265625 127.300781 49.148438 C 127.015625 49.03125 126.765625 48.863281 126.546875 48.644531 C 126.328125 48.425781 126.160156 48.175781 126.042969 47.890625 C 125.925781 47.605469 125.867188 47.308594 125.867188 47 C 125.867188 46.691406 125.925781 46.394531 126.042969 46.109375 C 126.160156 45.828125 126.328125 45.574219 126.546875 45.355469 C 126.765625 45.140625 127.015625 44.972656 127.300781 44.851562 C 127.585938 44.734375 127.882812 44.675781 128.191406 44.675781 C 128.5 44.675781 128.796875 44.734375 129.082031 44.851562 C 129.367188 44.972656 129.621094 45.140625 129.835938 45.355469 C 130.054688 45.574219 130.222656 45.828125 130.34375 46.109375 C 130.460938 46.394531 130.519531 46.691406 130.519531 47 Z M 130.519531 47 " fill-opacity="1" fill-rule="nonzero"/><path fill="#f77b55" d="M 130.519531 55.441406 C 130.519531 55.75 130.460938 56.046875 130.34375 56.328125 C 130.222656 56.613281 130.054688 56.867188 129.835938 57.082031 C 129.621094 57.300781 129.367188 57.46875 129.082031 57.585938 C 128.796875 57.707031 128.5 57.765625 128.191406 57.765625 C 127.882812 57.765625 127.585938 57.707031 127.300781 57.585938 C 127.015625 57.46875 126.765625 57.300781 126.546875 57.082031 C 126.328125 56.867188 126.160156 56.613281 126.042969 56.328125 C 125.925781 56.046875 125.867188 55.75 125.867188 55.441406 C 125.867188 55.132812 125.925781 54.835938 126.042969 54.550781 C 126.160156 54.265625 126.328125 54.015625 126.546875 53.796875 C 126.765625 53.578125 127.015625 53.410156 127.300781 53.292969 C 127.585938 53.175781 127.882812 53.117188 128.191406 53.117188 C 128.5 53.117188 128.796875 53.175781 129.082031 53.292969 C 129.367188 53.410156 129.621094 53.578125 129.835938 53.796875 C 130.054688 54.015625 130.222656 54.265625 130.34375 54.550781 C 130.460938 54.835938 130.519531 55.132812 130.519531 55.441406 Z M 130.519531 55.441406 " fill-opacity="1" fill-rule="nonzero"/><path fill="#fdca5c" d="M 130.515625 63.878906 C 130.515625 64.1875 130.457031 64.484375 130.339844 64.769531 C 130.222656 65.054688 130.054688 65.304688 129.835938 65.523438 C 129.617188 65.742188 129.367188 65.90625 129.082031 66.027344 C 128.796875 66.144531 128.5 66.203125 128.191406 66.203125 C 127.882812 66.203125 127.589844 66.144531 127.304688 66.027344 C 127.019531 65.90625 126.765625 65.742188 126.550781 65.523438 C 126.332031 65.304688 126.164062 65.054688 126.046875 64.769531 C 125.925781 64.484375 125.867188 64.1875 125.867188 63.878906 C 125.867188 63.574219 125.925781 63.277344 126.046875 62.992188 C 126.164062 62.707031 126.332031 62.457031 126.550781 62.238281 C 126.765625 62.019531 127.019531 61.851562 127.304688 61.734375 C 127.589844 61.617188 127.882812 61.558594 128.191406 61.558594 C 128.5 61.558594 128.796875 61.617188 129.082031 61.734375 C 129.367188 61.851562 129.617188 62.019531 129.835938 62.238281 C 130.054688 62.457031 130.222656 62.707031 130.339844 62.992188 C 130.457031 63.277344 130.515625 63.574219 130.515625 63.878906 Z M 130.515625 63.878906 " fill-opacity="1" fill-rule="nonzero"/><path fill="#232e38" d="M 183.070312 69.625 C 182.511719 69.625 182.0625 69.171875 182.0625 68.613281 C 182.0625 68.058594 182.511719 67.605469 183.070312 67.605469 C 196.746094 67.605469 207.871094 56.5 207.871094 42.84375 C 207.871094 29.179688 196.746094 18.058594 183.070312 18.058594 C 182.511719 18.058594 182.0625 17.609375 182.0625 17.050781 C 182.0625 16.492188 182.511719 16.042969 183.070312 16.042969 C 197.859375 16.042969 209.890625 28.066406 209.890625 42.84375 C 209.890625 57.609375 197.859375 69.625 183.070312 69.625 Z M 183.070312 47.84375 C 182.511719 47.84375 182.0625 47.394531 182.0625 46.835938 C 182.0625 46.277344 182.511719 45.828125 183.070312 45.828125 C 184.722656 45.828125 186.066406 44.492188 186.066406 42.847656 C 186.066406 41.195312 184.722656 39.851562 183.070312 39.851562 C 182.511719 39.851562 182.0625 39.402344 182.0625 38.84375 C 182.0625 38.285156 182.511719 37.835938 183.070312 37.835938 C 185.835938 37.835938 188.089844 40.085938 188.089844 42.847656 C 188.089844 45.601562 185.835938 47.84375 183.070312 47.84375 Z M 183.070312 47.84375 " fill-opacity="1" fill-rule="nonzero"/><path fill="#232e38" d="M 183.070312 53.867188 C 182.679688 53.867188 182.359375 53.546875 182.359375 53.152344 C 182.359375 52.761719 182.679688 52.441406 183.070312 52.441406 C 188.367188 52.441406 192.675781 48.136719 192.675781 42.847656 C 192.675781 37.546875 188.367188 33.238281 183.070312 33.238281 C 182.679688 33.238281 182.359375 32.917969 182.359375 32.523438 C 182.359375 32.132812 182.679688 31.8125 183.070312 31.8125 C 189.15625 31.8125 194.101562 36.761719 194.101562 42.847656 C 194.101562 48.921875 189.152344 53.867188 183.070312 53.867188 Z M 183.070312 53.867188 " fill-opacity="1" fill-rule="nonzero"/><path fill="#232e38" d="M 183.070312 50.019531 C 182.679688 50.019531 182.359375 49.699219 182.359375 49.304688 C 182.359375 48.910156 182.679688 48.59375 183.070312 48.59375 C 186.25 48.59375 188.835938 46.015625 188.835938 42.84375 C 188.835938 39.667969 186.25 37.082031 183.070312 37.082031 C 182.679688 37.082031 182.359375 36.765625 182.359375 36.371094 C 182.359375 35.980469 182.679688 35.660156 183.070312 35.660156 C 187.039062 35.660156 190.265625 38.882812 190.265625 42.84375 C 190.265625 46.800781 187.035156 50.019531 183.070312 50.019531 Z M 183.070312 47.546875 C 182.679688 47.546875 182.359375 47.230469 182.359375 46.835938 C 182.359375 46.441406 182.679688 46.125 183.070312 46.125 C 184.886719 46.125 186.367188 44.652344 186.367188 42.84375 C 186.367188 41.03125 184.886719 39.554688 183.070312 39.554688 C 182.679688 39.554688 182.359375 39.234375 182.359375 38.84375 C 182.359375 38.449219 182.679688 38.132812 183.070312 38.132812 C 185.671875 38.132812 187.792969 40.246094 187.792969 42.847656 C 187.792969 45.441406 185.671875 47.546875 183.070312 47.546875 Z M 183.070312 47.546875 " fill-opacity="1" fill-rule="nonzero"/><g clip-path="url(#916c7cf34d)"><path fill="#232e38" d="M 183.070312 74.457031 L 121.796875 74.457031 C 121.238281 74.457031 120.785156 74.003906 120.785156 73.445312 L 120.785156 12.234375 C 120.785156 11.675781 121.238281 11.226562 121.796875 11.226562 L 183.070312 11.226562 C 183.625 11.226562 184.078125 11.675781 184.078125 12.234375 L 184.078125 73.445312 C 184.078125 74.003906 183.628906 74.457031 183.070312 74.457031 Z M 122.804688 72.4375 L 182.058594 72.4375 L 182.058594 13.246094 L 122.804688 13.246094 Z M 122.804688 72.4375 " fill-opacity="1" fill-rule="nonzero"/></g><path fill="#232e38" d="M 128.191406 50.035156 C 126.515625 50.035156 125.15625 48.675781 125.15625 47 C 125.15625 45.328125 126.515625 43.964844 128.191406 43.964844 C 129.867188 43.964844 131.230469 45.328125 131.230469 47 C 131.230469 48.675781 129.867188 50.035156 128.191406 50.035156 Z M 128.191406 45.386719 C 127.300781 45.386719 126.582031 46.109375 126.582031 47 C 126.582031 47.890625 127.300781 48.613281 128.191406 48.613281 C 129.082031 48.613281 129.804688 47.890625 129.804688 47 C 129.804688 46.109375 129.082031 45.386719 128.191406 45.386719 Z M 128.191406 45.386719 " fill-opacity="1" fill-rule="nonzero"/><path fill="#232e38" d="M 128.191406 58.476562 C 126.515625 58.476562 125.15625 57.117188 125.15625 55.441406 C 125.15625 53.765625 126.515625 52.40625 128.191406 52.40625 C 129.867188 52.40625 131.230469 53.765625 131.230469 55.441406 C 131.230469 57.117188 129.867188 58.476562 128.191406 58.476562 Z M 128.191406 53.828125 C 127.300781 53.828125 126.582031 54.550781 126.582031 55.441406 C 126.582031 56.328125 127.300781 57.054688 128.191406 57.054688 C 129.082031 57.054688 129.804688 56.328125 129.804688 55.441406 C 129.804688 54.550781 129.082031 53.828125 128.191406 53.828125 Z M 128.191406 53.828125 " fill-opacity="1" fill-rule="nonzero"/><path fill="#232e38" d="M 128.191406 66.914062 C 126.515625 66.914062 125.15625 65.554688 125.15625 63.878906 C 125.15625 62.207031 126.515625 60.847656 128.191406 60.847656 C 129.867188 60.847656 131.230469 62.207031 131.230469 63.878906 C 131.230469 65.554688 129.867188 66.914062 128.191406 66.914062 Z M 128.191406 62.273438 C 127.300781 62.273438 126.582031 62.996094 126.582031 63.882812 C 126.582031 64.769531 127.300781 65.492188 128.191406 65.492188 C 129.082031 65.492188 129.804688 64.769531 129.804688 63.882812 C 129.804688 62.996094 129.082031 62.273438 128.191406 62.273438 Z M 128.191406 62.273438 " fill-opacity="1" fill-rule="nonzero"/></svg>